<?xml version="1.0" standalone="no"?>
<!DOCTYPE svg PUBLIC "-//W3C//DTD SVG 1.1//EN" "http://www.w3.org/Graphics/SVG/1.1/DTD/svg11.dtd" >
<!--
2013-9-30: Created.
-->
<svg>
<metadata>
Created by iconfont
</metadata>
<defs>

<font id="iconfont" horiz-adv-x="1024" >
  <font-face
    font-family="iconfont"
    font-weight="500"
    font-stretch="normal"
    units-per-em="1024"
    ascent="896"
    descent="-128"
  />
    <missing-glyph />
    
    <glyph glyph-name="arrow-down" unicode="&#58963;" d="M733.44 313.28L544 100.16V784a16 16 0 0 1-16 16h-32a16 16 0 0 1-16-16v-683.84L290.56 313.28a16 16 0 0 1-22.56 1.28l-24-21.12a16 16 0 0 1-1.28-22.72l257.28-289.44a16 16 0 0 1 24 0l257.28 289.44a16 16 0 0 1-1.28 22.72l-24 21.12a16 16 0 0 1-22.56-1.28z"  horiz-adv-x="1024" />

    
    <glyph glyph-name="align-center" unicode="&#58964;" d="M96 512m16 0l800 0q16 0 16-16l0-32q0-16-16-16l-800 0q-16 0-16 16l0 32q0 16 16 16ZM256 704m16 0l480 0q16 0 16-16l0-32q0-16-16-16l-480 0q-16 0-16 16l0 32q0 16 16 16ZM96 128m16 0l800 0q16 0 16-16l0-32q0-16-16-16l-800 0q-16 0-16 16l0 32q0 16 16 16ZM256 320m16 0l480 0q16 0 16-16l0-32q0-16-16-16l-480 0q-16 0-16 16l0 32q0 16 16 16Z"  horiz-adv-x="1024" />

    
    <glyph glyph-name="area-chart" unicode="&#58965;" d="M160 102.4V720a16 16 0 0 1-16 16H112a16 16 0 0 1-16-16v-672a16 16 0 0 1 16-16h800a16 16 0 0 1 16 16v32a16 16 0 0 1-16 16H166.4a6.4 6.4 0 0 0-6.4 6.4zM856.8 597.92l-164.96 110.08a16 16 0 0 1-22.72-5.12L535.68 480a6.24 6.24 0 0 0-8.64-2.24l-121.44 67.36a16 16 0 0 1-18.4-1.12l-157.76-140.8a16 16 0 0 1-5.44-12V176a16 16 0 0 1 16-16h608a16 16 0 0 1 16 16V584.64a16 16 0 0 1-7.2 13.28zM800 224H294.4a6.4 6.4 0 0 0-6.4 6.4v136.32a6.72 6.72 0 0 0 2.08 4.8l110.88 98.4a6.08 6.08 0 0 0 7.36 0.8l133.6-74.24a16 16 0 0 1 21.6 5.76l131.2 218.72a6.24 6.24 0 0 0 8.96 2.08L797.12 560a6.56 6.56 0 0 0 2.88-5.28z"  horiz-adv-x="1024" />

    
    <glyph glyph-name="arrow-up" unicode="&#58966;" d="M781.28 497.28L524 786.72a16 16 0 0 1-24 0L242.72 497.28a16 16 0 0 1 1.28-22.72l24-21.12a16 16 0 0 1 22.56 1.28L480 667.84V-16a16 16 0 0 1 16-16h32a16 16 0 0 1 16 16V667.84l189.44-213.12a16 16 0 0 1 22.56-1.28l24 21.12a16 16 0 0 1 1.28 22.72z"  horiz-adv-x="1024" />

    
    <glyph glyph-name="arrow-right" unicode="&#58967;" d="M602.56 652l-21.12-24a16 16 0 0 1 1.28-22.56L795.84 416H112a16 16 0 0 1-16-16v-32a16 16 0 0 1 16-16h683.84L582.72 162.56a16 16 0 0 1-1.28-22.56l21.12-24a16 16 0 0 1 22.72-1.28l289.44 257.28a16 16 0 0 1 0 24L625.28 653.28a16 16 0 0 1-22.72-1.28z"  horiz-adv-x="1024" />

    
    <glyph glyph-name="align-left" unicode="&#58968;" d="M96 512m16 0l800 0q16 0 16-16l0-32q0-16-16-16l-800 0q-16 0-16 16l0 32q0 16 16 16ZM96 704m16 0l480 0q16 0 16-16l0-32q0-16-16-16l-480 0q-16 0-16 16l0 32q0 16 16 16ZM96 128m16 0l800 0q16 0 16-16l0-32q0-16-16-16l-800 0q-16 0-16 16l0 32q0 16 16 16ZM96 320m16 0l480 0q16 0 16-16l0-32q0-16-16-16l-480 0q-16 0-16 16l0 32q0 16 16 16Z"  horiz-adv-x="1024" />

    
    <glyph glyph-name="arrow-left" unicode="&#58969;" d="M912 416H228.16l213.12 189.44a16 16 0 0 1 1.28 22.56l-21.12 24a16 16 0 0 1-22.72 1.28L109.28 396a16 16 0 0 1 0-24l289.44-257.28a16 16 0 0 1 22.72 1.28l21.12 24a16 16 0 0 1-1.28 22.56L228.16 352H912a16 16 0 0 1 16 16v32a16 16 0 0 1-16 16z"  horiz-adv-x="1024" />

    
    <glyph glyph-name="align-right" unicode="&#58970;" d="M96 512m16 0l800 0q16 0 16-16l0-32q0-16-16-16l-800 0q-16 0-16 16l0 32q0 16 16 16ZM416 704m16 0l480 0q16 0 16-16l0-32q0-16-16-16l-480 0q-16 0-16 16l0 32q0 16 16 16ZM96 128m16 0l800 0q16 0 16-16l0-32q0-16-16-16l-800 0q-16 0-16 16l0 32q0 16 16 16ZM416 320m16 0l480 0q16 0 16-16l0-32q0-16-16-16l-480 0q-16 0-16 16l0 32q0 16 16 16Z"  horiz-adv-x="1024" />

    
    <glyph glyph-name="bold" unicode="&#58971;" d="M690.88 418.72A208 208 0 0 1 784 596.8 211.84 211.84 0 0 1 570.08 800H224a16 16 0 0 1-16-16v-32a16 16 0 0 1 16-16h32v-704h-32a16 16 0 0 1-16-16v-32a16 16 0 0 1 16-16h345.12A244.32 244.32 0 0 1 816 196.8a240 240 0 0 1-125.12 221.92zM320 736h256a144 144 0 0 0 0-288H320z m256-704H320V384h256a176 176 0 0 0 0-352z"  horiz-adv-x="1024" />

    
    <glyph glyph-name="bottom-right" unicode="&#58972;" d="M864 432h-32a16 16 0 0 1-16-16v-290.72L177.92 763.36a16 16 0 0 1-22.56 0L132.64 740.64a16 16 0 0 1 0-22.56L770.72 80H480a16 16 0 0 1-16-16v-32a16 16 0 0 1 16-16h384a16 16 0 0 1 16 16V416a16 16 0 0 1-16 16z"  horiz-adv-x="1024" />

    
    <glyph glyph-name="desktop" unicode="&#58973;" d="M928 208V752a16 16 0 0 1-16 16H112a16 16 0 0 1-16-16v-544a16 16 0 0 1 16-16h368v-128h-112a16 16 0 0 1-16-16v-32a16 16 0 0 1 16-16h288a16 16 0 0 1 16 16v32a16 16 0 0 1-16 16h-112v128h368a16 16 0 0 1 16 16z m-768 54.4V697.6a6.4 6.4 0 0 0 6.4 6.4h691.2a6.4 6.4 0 0 0 6.4-6.4v-435.2a6.4 6.4 0 0 0-6.4-6.4H166.4a6.4 6.4 0 0 0-6.4 6.4z"  horiz-adv-x="1024" />

    
    <glyph glyph-name="bookmark" unicode="&#58974;" d="M192 784v-800a16 16 0 0 1 25.44-12.96l290.88 210.72a5.76 5.76 0 0 0 7.36 0l290.88-210.08A16 16 0 0 1 832-16V784a16 16 0 0 1-16 16H208a16 16 0 0 1-16-16z m565.92-698.08L521.44 256a16 16 0 0 1-18.88 0L266.08 85.92a6.4 6.4 0 0 0-10.08 5.12V729.6a6.4 6.4 0 0 0 6.4 6.4h499.2a6.4 6.4 0 0 0 6.4-6.4v-638.56a6.4 6.4 0 0 0-10.08-5.12z"  horiz-adv-x="1024" />

    
    <glyph glyph-name="copy" unicode="&#58975;" d="M176-32h512a16 16 0 0 1 16 16V624a16 16 0 0 1-16 16H176a16 16 0 0 1-16-16v-640a16 16 0 0 1 16-16z m54.4 608h403.2a6.4 6.4 0 0 0 6.4-6.4v-531.2a6.4 6.4 0 0 0-6.4-6.4H230.4a6.4 6.4 0 0 0-6.4 6.4V569.6a6.4 6.4 0 0 0 6.4 6.4zM336 800a16 16 0 0 1-16-16v-32a16 16 0 0 1 16-16h457.6a6.4 6.4 0 0 0 6.4-6.4V80a16 16 0 0 1 16-16h32a16 16 0 0 1 16 16V784a16 16 0 0 1-16 16z"  horiz-adv-x="1024" />

    
    <glyph glyph-name="dot-chart" unicode="&#58976;" d="M160 102.4V720a16 16 0 0 1-16 16H112a16 16 0 0 1-16-16v-672a16 16 0 0 1 16-16h800a16 16 0 0 1 16 16v32a16 16 0 0 1-16 16H166.4a6.4 6.4 0 0 0-6.4 6.4zM416 544m-64 0a64 64 0 1 1 128 0 64 64 0 1 1-128 0ZM640 384m-80 0a80 80 0 1 1 160 0 80 80 0 1 1-160 0ZM784 656m-48 0a48 48 0 1 1 96 0 48 48 0 1 1-96 0ZM272 256m-64 0a64 64 0 1 1 128 0 64 64 0 1 1-128 0Z"  horiz-adv-x="1024" />

    
    <glyph glyph-name="double-down" unicode="&#58977;" d="M501.28 30.56L150.24 349.6a16 16 0 0 0-0.96 22.56l21.44 23.68a16 16 0 0 0 22.72 1.12l314.24-285.76a6.4 6.4 0 0 1 8.64 0l314.24 285.76a16 16 0 0 0 22.72-1.12l21.44-23.68a16 16 0 0 0-0.96-22.56L522.72 30.56a16 16 0 0 0-21.44 0zM501.28 382.56L150.24 701.6a16 16 0 0 0-0.96 22.56l21.44 23.68a16 16 0 0 0 22.72 1.12l314.24-285.76a6.4 6.4 0 0 1 8.64 0L830.56 748.96a16 16 0 0 0 22.72-1.12l21.44-23.68a16 16 0 0 0-0.96-22.56L522.72 382.56a16 16 0 0 0-21.44 0z"  horiz-adv-x="1024" />

    
    <glyph glyph-name="double-left" unicode="&#58978;" d="M240 379.68a6.4 6.4 0 0 0 0 8.64l284.96 314.24a16 16 0 0 1-1.12 22.72l-23.68 21.44a16 16 0 0 1-22.56-0.96L158.56 394.72a16 16 0 0 1 0-21.44l319.04-351.04a16 16 0 0 1 22.56-0.96l23.68 21.44a16 16 0 0 1 1.12 22.72zM592 379.68a6.4 6.4 0 0 0 0 8.64l284.96 314.24a16 16 0 0 1-1.12 22.72l-23.68 21.44a16 16 0 0 1-22.56-0.96L510.56 394.72a16 16 0 0 1 0-21.44l319.04-351.04a16 16 0 0 1 22.56-0.96l23.68 21.44a16 16 0 0 1 1.12 22.72z"  horiz-adv-x="1024" />

    
    <glyph glyph-name="bottom-left" unicode="&#58979;" d="M891.36 740.64l-22.72 22.72a16 16 0 0 1-22.56 0L208 125.28V416a16 16 0 0 1-16 16h-32a16 16 0 0 1-16-16v-384a16 16 0 0 1 16-16h384a16 16 0 0 1 16 16v32a16 16 0 0 1-16 16H253.28l638.08 638.08a16 16 0 0 1 0 22.56z"  horiz-adv-x="1024" />

    
    <glyph glyph-name="bar-chart" unicode="&#58980;" d="M160 102.4V720a16 16 0 0 1-16 16H112a16 16 0 0 1-16-16v-672a16 16 0 0 1 16-16h800a16 16 0 0 1 16 16v32a16 16 0 0 1-16 16H166.4a6.4 6.4 0 0 0-6.4 6.4zM272 512m16 0l32 0q16 0 16-16l0-320q0-16-16-16l-32 0q-16 0-16 16l0 320q0 16 16 16ZM432 416m16 0l32 0q16 0 16-16l0-224q0-16-16-16l-32 0q-16 0-16 16l0 224q0 16 16 16ZM592 672m16 0l32 0q16 0 16-16l0-480q0-16-16-16l-32 0q-16 0-16 16l0 480q0 16 16 16ZM752 576m16 0l32 0q16 0 16-16l0-384q0-16-16-16l-32 0q-16 0-16 16l0 384q0 16 16 16Z"  horiz-adv-x="1024" />

    
    <glyph glyph-name="double-up" unicode="&#58981;" d="M170.72 372.16a16 16 0 0 1 22.72-1.12L507.68 656a6.4 6.4 0 0 0 8.64 0l314.24-284.96a16 16 0 0 1 22.72 1.12l21.44 23.68a16 16 0 0 1-0.96 22.56L522.72 737.44a16 16 0 0 1-21.44 0L150.24 418.4a16 16 0 0 1-0.96-22.56zM522.72 385.44a16 16 0 0 1-21.44 0L150.24 66.4a16 16 0 0 1-0.96-22.56l21.44-23.68a16 16 0 0 1 22.72-1.12L507.68 304a6.4 6.4 0 0 0 8.64 0l314.24-284.96a16 16 0 0 1 22.72 1.12l21.44 23.68a16 16 0 0 1-0.96 22.56z"  horiz-adv-x="1024" />

    
    <glyph glyph-name="edit" unicode="&#58982;" d="M881.92 587.36L635.36 833.92a16 16 0 0 1-22.72 0l-496-496a16 16 0 0 1-4.64-11.36V80a16 16 0 0 1 16-16h246.56a16 16 0 0 1 11.36 4.64l496 496a16 16 0 0 1 0 22.72z m-83.68-16L390.56 163.84a256 256 0 0 1-178.72 178.72L619.52 750.24a6.24 6.24 0 0 0 8.96 0l169.76-169.76a6.24 6.24 0 0 0 0-8.96zM176 285.12A192 192 0 0 0 333.12 128H182.4a6.4 6.4 0 0 0-6.4 6.4zM112 0m16 0l768 0q16 0 16-16l0-32q0-16-16-16l-768 0q-16 0-16 16l0 32q0 16 16 16Z"  horiz-adv-x="1024" />

    
    <glyph glyph-name="dashboard" unicode="&#58983;" d="M512 800a416 416 0 1 1 416-416A416 416 0 0 1 512 800z m0-768a352 352 0 1 0 352 352 352 352 0 0 0-352-352zM727.04 576L704 599.04a16 16 0 0 1-22.56 0l-128-128a96 96 0 1 1 45.28-45.28l128 128a16 16 0 0 1 0.32 22.24zM512 352a32 32 0 1 0 32 32 32 32 0 0 0-32-32zM611.68 595.68l24.32 24.32a16 16 0 0 1-4.64 26.08A288 288 0 0 1 224 400a16 16 0 0 1 16-16h32a16 16 0 0 1 16 16 224 224 0 0 0 224 208 219.52 219.52 0 0 0 82.24-16 16 16 0 0 1 17.44 3.68zM752.8 496l-24.96-24.96a16 16 0 0 1-3.68-16A224 224 0 0 0 736 398.4a16 16 0 0 1 16-14.4h32a16 16 0 0 1 16 16 283.84 283.84 0 0 1-20.48 91.2 16 16 0 0 1-26.72 4.8z"  horiz-adv-x="1024" />

    
    <glyph glyph-name="double-bar-chart" unicode="&#58984;" d="M160 416V752a16 16 0 0 1-16 16H112a16 16 0 0 1-16-16v-736a16 16 0 0 1 16-16h32a16 16 0 0 1 16 16V352h752a16 16 0 0 1 16 16v32a16 16 0 0 1-16 16zM388.96 606.4L544 575.2a16 16 0 0 1 12.32 2.72l140.48 98.4a6.72 6.72 0 0 0 8 0l125.44-112.96a16 16 0 0 1 22.56 1.28l21.44 23.68a16 16 0 0 1-1.28 22.72L716 752a16 16 0 0 1-20 1.12l-156.96-109.76a5.92 5.92 0 0 0-4.8-1.12L385.6 672a16 16 0 0 1-9.12 0l-149.44-59.84a16 16 0 0 1-8.96-20.8l11.84-29.76a16 16 0 0 1 20.8-8.96l134.56 53.92a7.04 7.04 0 0 0 3.68-0.16zM538.24 289.92l-157.92-94.88a6.72 6.72 0 0 0-4.64 0l-129.76 25.92a16 16 0 0 1-18.72-12.96l-6.4-32a16 16 0 0 1 12.64-18.88L384 128a16 16 0 0 1 11.36 2.08l139.52 83.68a6.24 6.24 0 0 0 7.84-0.96l144-144a16 16 0 0 1 11.36-4.64H848a16 16 0 0 1 16 16V112a16 16 0 0 1-16 16h-128a6.24 6.24 0 0 0-4.48 1.92L557.76 288a16 16 0 0 1-19.52 1.92z"  horiz-adv-x="1024" />

    
    <glyph glyph-name="down" unicode="&#58985;" d="M907.36 564.64l-22.72 22.72a16 16 0 0 1-22.56 0l-345.6-345.6a6.4 6.4 0 0 0-8.96 0l-345.6 345.6a16 16 0 0 1-22.56 0l-22.72-22.72a16 16 0 0 1 0-22.56l384-384a16 16 0 0 1 22.72 0l384 384a16 16 0 0 1 0 22.56z"  horiz-adv-x="1024" />

    
    <glyph glyph-name="eraser" unicode="&#58986;" d="M224 0m16 0l704 0q16 0 16-16l0-32q0-16-16-16l-704 0q-16 0-16 16l0 32q0 16 16 16ZM512 65.92l449.92 450.72a16 16 0 0 1 0 22.72L683.36 817.92a16 16 0 0 1-22.72 0L78.08 235.36a16 16 0 0 1 0-22.72l146.72-146.72a6.4 6.4 0 0 1 4.64-1.92h277.12a6.4 6.4 0 0 1 5.44 1.92z m164.48 668.32l201.76-201.76a6.24 6.24 0 0 0 0-8.96L596.48 241.76a6.24 6.24 0 0 0-8.96 0L385.76 443.52a6.24 6.24 0 0 0 0 8.96l281.76 281.76a6.24 6.24 0 0 0 8.96 0z m-336-336l201.76-201.76a6.24 6.24 0 0 0 0-8.96l-57.6-57.6A6.24 6.24 0 0 0 480 128H256a6.24 6.24 0 0 0-4.48 1.92l-89.6 89.6a6.24 6.24 0 0 0 0 8.96l169.6 169.76a6.24 6.24 0 0 0 8.96 0z"  horiz-adv-x="1024" />

    
    <glyph glyph-name="folder-add" unicode="&#58987;" d="M494.08 626.56L404.8 745.6a16 16 0 0 1-12.8 6.4H112a16 16 0 0 1-16-16v-704a16 16 0 0 1 16-16h800a16 16 0 0 1 16 16V608a16 16 0 0 1-16 16H499.2a6.72 6.72 0 0 0-5.12 2.56zM857.6 80H166.4a6.4 6.4 0 0 0-6.4 6.4V681.6a6.4 6.4 0 0 0 6.4 6.4h198.4a6.24 6.24 0 0 0 5.12-2.56l89.28-119.04a16 16 0 0 1 12.8-6.4h385.6a6.4 6.4 0 0 0 6.4-6.4v-467.2a6.4 6.4 0 0 0-6.4-6.4zM384 345.6v-51.2a6.4 6.4 0 0 1 6.4-6.4H480v-89.6a6.4 6.4 0 0 1 6.4-6.4h51.2a6.4 6.4 0 0 1 6.4 6.4V288h89.6a6.4 6.4 0 0 1 6.4 6.4v51.2a6.4 6.4 0 0 1-6.4 6.4H544v89.6a6.4 6.4 0 0 1-6.4 6.4h-51.2a6.4 6.4 0 0 1-6.4-6.4V352h-89.6a6.4 6.4 0 0 1-6.4-6.4z"  horiz-adv-x="1024" />

    
    <glyph glyph-name="folder" unicode="&#58988;" d="M494.08 626.56L404.8 745.6a16 16 0 0 1-12.8 6.4H112a16 16 0 0 1-16-16v-704a16 16 0 0 1 16-16h800a16 16 0 0 1 16 16V608a16 16 0 0 1-16 16H499.2a6.72 6.72 0 0 0-5.12 2.56zM857.6 80H166.4a6.4 6.4 0 0 0-6.4 6.4V681.6a6.4 6.4 0 0 0 6.4 6.4h198.4a6.24 6.24 0 0 0 5.12-2.56l89.28-119.04a16 16 0 0 1 12.8-6.4h385.6a6.4 6.4 0 0 0 6.4-6.4v-467.2a6.4 6.4 0 0 0-6.4-6.4z"  horiz-adv-x="1024" />

    
    <glyph glyph-name="double-right" unicode="&#58989;" d="M865.44 394.72L546.4 745.76a16 16 0 0 1-22.56 0.96l-23.68-21.44a16 16 0 0 1-1.12-22.72l285.76-314.24a6.4 6.4 0 0 0 0-8.64L499.04 65.44a16 16 0 0 1 1.12-22.72l23.68-21.44a16 16 0 0 1 22.56 0.96l319.04 351.04a16 16 0 0 1 0 21.44zM513.44 394.72L194.4 745.76a16 16 0 0 1-22.56 0.96l-23.68-21.44a16 16 0 0 1-1.12-22.72l285.76-314.24a6.4 6.4 0 0 0 0-8.64L147.04 65.44a16 16 0 0 1 1.12-22.72l23.68-21.44a16 16 0 0 1 22.56 0.96l319.04 351.04a16 16 0 0 1 0 21.44z"  horiz-adv-x="1024" />

    
    <glyph glyph-name="folder-opened" unicode="&#58990;" d="M950.24 464H832v144a16 16 0 0 1-16 16H499.2a6.72 6.72 0 0 0-5.12 2.56L404.8 745.6a16 16 0 0 1-12.8 6.4H112a16 16 0 0 1-16-16v-704a16 16 0 0 1 16-16h699.52a16 16 0 0 1 16 10.88l138.72 416a16 16 0 0 1-16 21.12zM160 681.6a6.4 6.4 0 0 0 6.4 6.4h198.4a6.24 6.24 0 0 0 5.12-2.56l89.28-119.04a16 16 0 0 1 12.8-6.4h289.6a6.4 6.4 0 0 0 6.4-6.4V464H244.48a16 16 0 0 1-15.2-11.04L160 245.28z m720.8-290.08l-100.16-300.64a16 16 0 0 0-15.2-10.88H181.28a6.24 6.24 0 0 0-6.08 8.32l100.16 300.64a16 16 0 0 0 15.2 11.04h584.16a6.4 6.4 0 0 0 6.08-8.48z"  horiz-adv-x="1024" />

    
    <glyph glyph-name="dustbin" unicode="&#58991;" d="M880 672h-128l-91.2 121.6a16 16 0 0 1-12.8 6.4h-272a16 16 0 0 1-12.8-6.4L272 672H144a16 16 0 0 1-16-16v-32a16 16 0 0 1 16-16h48l62.56-625.6a16 16 0 0 1 16-14.4H753.6a16 16 0 0 1 16 14.4L832 608h48a16 16 0 0 1 16 16v32a16 16 0 0 1-16 16z m-481.92 61.44a6.4 6.4 0 0 0 5.12 2.56h217.6a6.4 6.4 0 0 0 5.12-2.56L672 672H352zM724.8 176H534.08a6.4 6.4 0 0 0-6.4 6.08l-16 275.2a6.4 6.4 0 0 0 6.4 6.72H753.6z m35.2 352H464a16 16 0 0 1-16-16l16-384a16 16 0 0 1 16-16h238.4l-7.36-74.24A6.56 6.56 0 0 0 704 32H320a6.56 6.56 0 0 0-6.4 5.76L256 608h512z"  horiz-adv-x="1024" />

    
    <glyph glyph-name="flag" unicode="&#58992;" d="M776.32 451.36l146.56 228a16 16 0 0 1-13.44 24.64H282.4a92.8 92.8 0 0 1 1.44 59.84A96 96 0 1 1 160 645.6V-48a16 16 0 0 1 16-16h32a16 16 0 0 1 16 16V192h685.44a16 16 0 0 1 13.44 24.64l-146.56 227.84a6.72 6.72 0 0 0 0 6.88zM192 768a32 32 0 1 0-32-32 32 32 0 0 0 32 32z m32-128h585.76a6.4 6.4 0 0 0 5.28-9.92L704 456.64a16 16 0 0 1 0-17.28l112-173.6a6.24 6.24 0 0 0-5.28-9.76H224z"  horiz-adv-x="1024" />

    
    <glyph glyph-name="laptop" unicode="&#58993;" d="M880 736H144a16 16 0 0 1-16-16v-544a16 16 0 0 1 16-16h736a16 16 0 0 1 16 16V720a16 16 0 0 1-16 16z m-54.4-512H198.4a6.4 6.4 0 0 0-6.4 6.4V665.6a6.4 6.4 0 0 0 6.4 6.4h627.2a6.4 6.4 0 0 0 6.4-6.4v-435.2a6.4 6.4 0 0 0-6.4-6.4zM96 96m16 0l800 0q16 0 16-16l0-32q0-16-16-16l-800 0q-16 0-16 16l0 32q0 16 16 16Z"  horiz-adv-x="1024" />

    
    <glyph glyph-name="left" unicode="&#58994;" d="M670.08-11.36l-384 384a16 16 0 0 0 0 22.72l384 384a16 16 0 0 0 22.56 0l22.72-22.72a16 16 0 0 0 0-22.56l-345.6-345.6a6.4 6.4 0 0 1 0-8.96l345.6-345.6a16 16 0 0 0 0-22.56l-22.72-22.72a16 16 0 0 0-22.56 0z"  horiz-adv-x="1024" />

    
    <glyph glyph-name="line-through" unicode="&#58995;" d="M912 400a16 16 0 0 1-16 16H512c-123.68 0-224 71.68-224 160s100.32 160 224 160c117.28 0 213.44-64 224-146.24a16 16 0 0 1 16-13.76h32a16 16 0 0 1 16 17.76C787.36 709.12 663.36 800 512 800c-159.04 0-288-100.32-288-224a202.88 202.88 0 0 1 86.56-160H128a16 16 0 0 1-16-16v-32a16 16 0 0 1 16-16h384c141.44 0 256-71.68 256-160s-114.56-160-256-160c-134.08 0-244.16 64-255.04 146.56a16 16 0 0 1-16 13.44h-32a16 16 0 0 1-16-17.92C206.08 58.72 344-32 512-32c176 0 320 100.32 320 224 0 62.72-36.96 119.36-96 160h160a16 16 0 0 1 16 16z"  horiz-adv-x="1024" />

    
    <glyph glyph-name="home" unicode="&#58996;" d="M504 816l-400-233.12a16 16 0 0 1-8-13.76V-16a16 16 0 0 1 16-16h800a16 16 0 0 1 16 16V569.12a16 16 0 0 1-7.84 13.76L520.16 816a16 16 0 0 1-16.16 0zM416 32V240h192v-208z m441.6 0H672V288a16 16 0 0 1-16 16H368a16 16 0 0 1-16-16v-256H166.4a6.4 6.4 0 0 0-6.4 6.4V537.92a6.4 6.4 0 0 0 3.2 5.44l345.6 201.6a6.08 6.08 0 0 0 6.56 0L860.96 544a6.24 6.24 0 0 0 3.04-5.44V38.4a6.4 6.4 0 0 0-6.4-6.4z"  horiz-adv-x="1024" />

    
    <glyph glyph-name="list-decimal" unicode="&#58997;" d="M272 688m16 0l624 0q16 0 16-16l0-32q0-16-16-16l-624 0q-16 0-16 16l0 32q0 16 16 16ZM272 144m16 0l624 0q16 0 16-16l0-32q0-16-16-16l-624 0q-16 0-16 16l0 32q0 16 16 16ZM272 416m16 0l624 0q16 0 16-16l0-32q0-16-16-16l-624 0q-16 0-16 16l0 32q0 16 16 16ZM128 736m6.4 0l35.2 0q6.4 0 6.4-6.4l0-147.2q0-6.4-6.4-6.4l-35.2 0q-6.4 0-6.4 6.4l0 147.2q0 6.4 6.4 6.4ZM102.4 416H160l-62.08-62.08a6.4 6.4 0 0 1-1.92-4.64v-38.88a6.4 6.4 0 0 1 6.4-6.4h99.2a6.4 6.4 0 0 1 6.4 6.4v35.2a6.4 6.4 0 0 1-6.4 6.4H144l62.08 62.08a6.4 6.4 0 0 1 1.92 4.64V457.6a6.4 6.4 0 0 1-6.4 6.4H102.4a6.4 6.4 0 0 1-6.4-6.4v-35.2a6.4 6.4 0 0 1 6.4-6.4zM102.4 144H160l-14.56-29.12a6.08 6.08 0 0 1 0-5.76L160 80H102.4a6.4 6.4 0 0 1-6.4-6.4v-35.2a6.4 6.4 0 0 1 6.4-6.4h99.2a6.4 6.4 0 0 1 6.4 6.4v40.16a5.28 5.28 0 0 1 0 2.72l-13.92 27.84a6.08 6.08 0 0 0 0 5.76l13.92 27.84a5.28 5.28 0 0 1 0 2.72V185.6a6.4 6.4 0 0 1-6.4 6.4H102.4a6.4 6.4 0 0 1-6.4-6.4v-35.2a6.4 6.4 0 0 1 6.4-6.4z"  horiz-adv-x="1024" />

    
    <glyph glyph-name="font-size" unicode="&#58998;" d="M352 704h153.6a6.4 6.4 0 0 0 6.4-6.4V656a16 16 0 0 1 16-16h32a16 16 0 0 1 16 16V752a16 16 0 0 1-16 16H80a16 16 0 0 1-16-16v-96a16 16 0 0 1 16-16h32a16 16 0 0 1 16 16v41.6a6.4 6.4 0 0 0 6.4 6.4H288v-640h-80a16 16 0 0 1-16-16v-32a16 16 0 0 1 16-16h224a16 16 0 0 1 16 16v32a16 16 0 0 1-16 16h-80zM512 528v-96a16 16 0 0 1 16-16h32a16 16 0 0 1 16 16v41.6a6.4 6.4 0 0 0 6.4 6.4H704v-416h-48a16 16 0 0 1-16-16v-32a16 16 0 0 1 16-16h160a16 16 0 0 1 16 16v32a16 16 0 0 1-16 16h-48V480h121.6a6.4 6.4 0 0 0 6.4-6.4V432a16 16 0 0 1 16-16h32a16 16 0 0 1 16 16v96a16 16 0 0 1-16 16H528a16 16 0 0 1-16-16z"  horiz-adv-x="1024" />

    
    <glyph glyph-name="mobile" unicode="&#58999;" d="M160 784v-800a16 16 0 0 1 16-16h672a16 16 0 0 1 16 16V784a16 16 0 0 1-16 16H176a16 16 0 0 1-16-16z m633.6-752H230.4a6.4 6.4 0 0 0-6.4 6.4V729.6a6.4 6.4 0 0 0 6.4 6.4h563.2a6.4 6.4 0 0 0 6.4-6.4v-691.2a6.4 6.4 0 0 0-6.4-6.4zM512 144m-48 0a48 48 0 1 1 96 0 48 48 0 1 1-96 0ZM384 672m6.4 0l243.2 0q6.4 0 6.4-6.4l0-51.2q0-6.4-6.4-6.4l-243.2 0q-6.4 0-6.4 6.4l0 51.2q0 6.4 6.4 6.4Z"  horiz-adv-x="1024" />

    
    <glyph glyph-name="folder-remove" unicode="&#59000;" d="M494.08 626.56L404.8 745.6a16 16 0 0 1-12.8 6.4H112a16 16 0 0 1-16-16v-704a16 16 0 0 1 16-16h800a16 16 0 0 1 16 16V608a16 16 0 0 1-16 16H499.2a6.72 6.72 0 0 0-5.12 2.56zM857.6 80H166.4a6.4 6.4 0 0 0-6.4 6.4V681.6a6.4 6.4 0 0 0 6.4 6.4h198.4a6.24 6.24 0 0 0 5.12-2.56l89.28-119.04a16 16 0 0 1 12.8-6.4h385.6a6.4 6.4 0 0 0 6.4-6.4v-467.2a6.4 6.4 0 0 0-6.4-6.4zM384 352m6.4 0l243.2 0q6.4 0 6.4-6.4l0-51.2q0-6.4-6.4-6.4l-243.2 0q-6.4 0-6.4 6.4l0 51.2q0 6.4 6.4 6.4Z"  horiz-adv-x="1024" />

    
    <glyph glyph-name="radar-chart" unicode="&#59001;" d="M729.28 784H294.72a16 16 0 0 1-13.92-8.16L64 391.84a16 16 0 0 1 0-16l217.12-384a16 16 0 0 1 13.92-8.16h434.24a16 16 0 0 1 13.92 8.16L960 376.16a16 16 0 0 1 0 16l-217.12 384a16 16 0 0 1-13.6 7.84zM470.88 408h-144l67.52 135.2z m-26.24 144h134.72L512 432z m26.24-192L394.4 224l-67.52 136zM512 335.2l67.36-119.2h-134.72z m41.12 24.8h144L629.6 224z m0 48l76.48 135.2 67.52-135.2z m53.44 192H417.44L349.6 720h324.8z m-240-6.4l-92.8-185.6H146.4l162.24 287.04z m-92.8-233.6l92.8-185.6-57.28-101.44L146.4 360z m144-192h188.8l67.84-120h-324.8z m240 6.4l92.8 185.6h126.72L715.36 72.96z m92.8 233.6l-92.8 185.6 57.28 101.44L877.6 408z"  horiz-adv-x="1024" />

    
    <glyph glyph-name="font-color" unicode="&#59002;" d="M64 32m16 0l864 0q16 0 16-16l0-32q0-16-16-16l-864 0q-16 0-16 16l0 32q0 16 16 16ZM176 96h68.32a16 16 0 0 1 15.2 11.2L347.68 384h328.64l88.16-276.8a16 16 0 0 1 15.2-11.2H848a16 16 0 0 1 16 16v32a16 16 0 0 1-16 16h-32a6.4 6.4 0 0 0-6.08 4.48L611.52 788.8a16 16 0 0 1-15.2 11.2H427.68a16 16 0 0 1-15.2-11.2l-198.72-624a6.4 6.4 0 0 0-5.76-4.8h-32a16 16 0 0 1-16-16v-32a16 16 0 0 1 16-16z m282.24 635.52A6.4 6.4 0 0 0 464 736h96a6.4 6.4 0 0 0 6.08-4.48L656 448H368z"  horiz-adv-x="1024" />

    
    <glyph glyph-name="funnel-chart" unicode="&#59003;" d="M70.56 744.16l427.52-752a16 16 0 0 1 27.84 0l427.52 752A16 16 0 0 1 939.52 768H84.48a16 16 0 0 1-13.92-23.84z m780.96-49.76l-74.56-131.2a6.4 6.4 0 0 0-5.44-3.2H252.48a6.4 6.4 0 0 0-5.44 3.2l-74.56 131.2a6.4 6.4 0 0 0 5.44 9.6h668.16a6.4 6.4 0 0 0 5.44-9.6zM296.16 496h432a6.4 6.4 0 0 0 5.6-9.6l-83.68-147.2a6.4 6.4 0 0 0-5.6-3.2H379.84a6.4 6.4 0 0 0-5.6 3.2l-83.68 147.2a6.4 6.4 0 0 0 5.6 9.6z m128-224h176.48a6.4 6.4 0 0 0 5.44-9.6l-88.48-155.84a6.4 6.4 0 0 0-11.2 0l-88.48 155.84a6.4 6.4 0 0 0 5.44 9.6z"  horiz-adv-x="1024" />

    
    <glyph glyph-name="list-disc" unicode="&#59004;" d="M288 688m16 0l608 0q16 0 16-16l0-32q0-16-16-16l-608 0q-16 0-16 16l0 32q0 16 16 16ZM144 656m-48 0a48 48 0 1 1 96 0 48 48 0 1 1-96 0ZM288 144m16 0l608 0q16 0 16-16l0-32q0-16-16-16l-608 0q-16 0-16 16l0 32q0 16 16 16ZM144 112m-48 0a48 48 0 1 1 96 0 48 48 0 1 1-96 0ZM288 416m16 0l608 0q16 0 16-16l0-32q0-16-16-16l-608 0q-16 0-16 16l0 32q0 16 16 16ZM144 384m-48 0a48 48 0 1 1 96 0 48 48 0 1 1-96 0Z"  horiz-adv-x="1024" />

    
    <glyph glyph-name="italic" unicode="&#59005;" d="M800 736V768a16 16 0 0 1-16 16H368a16 16 0 0 1-16-16v-32a16 16 0 0 1 16-16h176l-128-672H240a16 16 0 0 1-16-16v-32a16 16 0 0 1 16-16h416a16 16 0 0 1 16 16v32a16 16 0 0 1-16 16H480l128 672h176a16 16 0 0 1 16 16z"  horiz-adv-x="1024" />

    
    <glyph glyph-name="sort-horizontal" unicode="&#59006;" d="M123.36 448H912a16 16 0 0 1 16 16v32a16 16 0 0 1-16 16H233.44l147.2 158.56a16 16 0 0 1-0.96 22.56l-23.36 21.76a16 16 0 0 1-22.72 0L112 474.88A16 16 0 0 1 123.36 448zM900.64 320H112a16 16 0 0 1-16-16v-32a16 16 0 0 1 16-16h678.56l-147.2-158.56a16 16 0 0 1 0.96-22.56l23.36-21.76a16 16 0 0 1 22.72 0l221.6 240a16 16 0 0 1-11.36 26.88z"  horiz-adv-x="1024" />

    
    <glyph glyph-name="sort-up" unicode="&#59007;" d="M624-32h-32a16 16 0 0 0-16 16V772.64A16 16 0 0 0 602.88 784l240-222.08a16 16 0 0 0 0-22.72l-21.76-23.36a16 16 0 0 0-22.56-0.96L640 662.56V-16a16 16 0 0 0-16-16zM432-32h-32a16 16 0 0 0-16 16V662.56l-158.56-147.2a16 16 0 0 0-22.56 0.96l-21.76 23.36a16 16 0 0 0 0 22.72L421.12 784a16 16 0 0 0 26.88-11.36V-16a16 16 0 0 0-16-16z"  horiz-adv-x="1024" />

    
    <glyph glyph-name="right" unicode="&#59008;" d="M331.36-11.36l-22.72 22.72a16 16 0 0 0 0 22.56l345.6 345.6a6.4 6.4 0 0 1 0 8.96l-345.6 345.6a16 16 0 0 0 0 22.56l22.72 22.72a16 16 0 0 0 22.56 0l384-384a16 16 0 0 0 0-22.72l-384-384a16 16 0 0 0-22.56 0z"  horiz-adv-x="1024" />

    
    <glyph glyph-name="vertical-align-middle" unicode="&#59009;" d="M576 800m16 0l32 0q16 0 16-16l0-800q0-16-16-16l-32 0q-16 0-16 16l0 800q0 16 16 16ZM768 640m16 0l32 0q16 0 16-16l0-480q0-16-16-16l-32 0q-16 0-16 16l0 480q0 16 16 16ZM192 800m16 0l32 0q16 0 16-16l0-800q0-16-16-16l-32 0q-16 0-16 16l0 800q0 16 16 16ZM384 640m16 0l32 0q16 0 16-16l0-480q0-16-16-16l-32 0q-16 0-16 16l0 480q0 16 16 16Z"  horiz-adv-x="1024" />

    
    <glyph glyph-name="sort-left" unicode="&#59010;" d="M912 512H233.44l147.2 158.56a16 16 0 0 1-0.96 22.56l-23.36 21.76a16 16 0 0 1-22.72 0L112 474.88A16 16 0 0 1 123.36 448H912a16 16 0 0 1 16 16v32a16 16 0 0 1-16 16zM912 320H123.36A16 16 0 0 1 112 293.12l222.08-240a16 16 0 0 1 22.72 0l23.36 21.76a16 16 0 0 1 0.96 22.56L233.44 256H912a16 16 0 0 1 16 16v32a16 16 0 0 1-16 16z"  horiz-adv-x="1024" />

    
    <glyph glyph-name="sort-vertical" unicode="&#59011;" d="M842.88 228.32l-21.76 23.36a16 16 0 0 1-22.56 0.96L640 105.44V784a16 16 0 0 1-16 16h-32a16 16 0 0 1-16-16v-788.64a16 16 0 0 1 26.88-11.84l240 222.08a16 16 0 0 1 0 22.72zM421.12 784L181.92 562.4a16 16 0 0 1 0-22.72l21.76-23.36a16 16 0 0 1 22.56-0.96l157.76 147.2V-16a16 16 0 0 1 16-16h32a16 16 0 0 1 16 16V772.64A16 16 0 0 1 421.12 784z"  horiz-adv-x="1024" />

    
    <glyph glyph-name="pie-chart" unicode="&#59012;" d="M464 672h-7.84C262.72 672 99.36 519.36 96 325.92A352 352 0 0 1 453.92-32C647.36-28.64 800 134.72 800 328.16V336a16 16 0 0 1-16 16H480V656a16 16 0 0 1-16 16z m270.24-384A288 288 0 1 0 416 606.24V304a16 16 0 0 1 16-16zM576 800h-16a16 16 0 0 1-16-16v-352a16 16 0 0 1 16-16h352a16 16 0 0 1 16 16v16A352 352 0 0 1 576 800z m32-320V734.24A288 288 0 0 0 862.24 480z"  horiz-adv-x="1024" />

    
    <glyph glyph-name="line-chart" unicode="&#59013;" d="M160 102.4V720a16 16 0 0 1-16 16H112a16 16 0 0 1-16-16v-672a16 16 0 0 1 16-16h800a16 16 0 0 1 16 16v32a16 16 0 0 1-16 16H166.4a6.4 6.4 0 0 0-6.4 6.4zM393.44 400l145.28-116.32a16 16 0 0 1 24 4.64l149.92 269.92a6.56 6.56 0 0 0 8.96 1.76l112-67.36a16 16 0 0 1 22.08 5.44l16 27.52a16 16 0 0 1-5.44 21.92l-160 96a16 16 0 0 1-22.24-5.92l-145.92-262.4a6.4 6.4 0 0 0-9.6-1.76l-136.8 109.28a16 16 0 0 1-22.24-2.24l-160-192a16 16 0 0 1 2.08-22.56l24.64-20.48a16 16 0 0 1 22.56 2.08L384 398.56a6.56 6.56 0 0 0 9.44 1.44z"  horiz-adv-x="1024" />

    
    <glyph glyph-name="tablet" unicode="&#59014;" d="M96 720v-672a16 16 0 0 1 16-16h800a16 16 0 0 1 16 16V720a16 16 0 0 1-16 16H112a16 16 0 0 1-16-16z m761.6-624H166.4a6.4 6.4 0 0 0-6.4 6.4V665.6a6.4 6.4 0 0 0 6.4 6.4h691.2a6.4 6.4 0 0 0 6.4-6.4v-563.2a6.4 6.4 0 0 0-6.4-6.4zM752 384m-48 0a48 48 0 1 1 96 0 48 48 0 1 1-96 0Z"  horiz-adv-x="1024" />

    
    <glyph glyph-name="pin" unicode="&#59015;" d="M668.64 841.92L480 653.44l-155.2-31.04a16 16 0 0 1-8.16-4.32l-62.72-62.72a16 16 0 0 1 0-22.72L434.72 352 117.6 34.88a16 16 0 0 1-4-6.88l-14.24-48a6.24 6.24 0 0 1 7.84-7.84l48.8 14.24a16 16 0 0 1 6.88 4L480 306.72l180.64-180.64a16 16 0 0 1 22.72 0l62.72 62.72a16 16 0 0 1 4.32 8.16L781.44 352l188.48 188.64a16 16 0 0 1 0 22.72L691.36 841.92a16 16 0 0 1-22.72 0z m52.96-462.88l-30.72-153.44a5.92 5.92 0 0 0-1.76-3.2l-12.64-12.64a6.24 6.24 0 0 0-8.96 0L337.76 539.52a6.24 6.24 0 0 0 0 8.96l12.64 12.64a5.92 5.92 0 0 0 3.2 1.76l153.44 30.72a16 16 0 0 1 8.16 4.32l160 160a6.24 6.24 0 0 0 8.96 0l202.08-201.44a6.24 6.24 0 0 0 0-8.96l-160-160a16 16 0 0 1-4.64-8.48z"  horiz-adv-x="1024" />

    
    <glyph glyph-name="underline" unicode="&#59016;" d="M128 48m16 0l736 0q16 0 16-16l0-32q0-16-16-16l-736 0q-16 0-16 16l0 32q0 16 16 16ZM523.04 112C688 118.08 816 258.4 816 423.36V768a16 16 0 0 1-16 16h-32a16 16 0 0 1-16-16v-345.28A244.48 244.48 0 0 0 523.68 176 240 240 0 0 0 272 416V768a16 16 0 0 1-16 16h-32a16 16 0 0 1-16-16v-352a304 304 0 0 1 315.04-304z"  horiz-adv-x="1024" />

    
    <glyph glyph-name="sort-descending" unicode="&#59017;" d="M912 320H624a16 16 0 0 1-16-16v-32a16 16 0 0 1 16-16h208L612.64 36.64a16 16 0 0 1-4.64-11.2V-16a16 16 0 0 1 16-16h288a16 16 0 0 1 16 16v64a16 16 0 0 1-16 16h-32a16 16 0 0 1-16-16v-16H704l219.36 219.36a16 16 0 0 1 4.64 11.2V304a16 16 0 0 1-16 16zM283.36 817.92a16 16 0 0 1-22.72 0l-192-192a16 16 0 0 1 0-22.56l22.72-22.72a16 16 0 0 1 22.56 0L240 706.72V-48a16 16 0 0 1 16-16h32a16 16 0 0 1 16 16V706.72l126.08-126.08a16 16 0 0 1 22.56 0l22.72 22.72a16 16 0 0 1 0 22.56zM954.56 468.16l-87.36 320a16 16 0 0 1-16 11.84H684.16a16 16 0 0 1-16-11.84l-87.36-320a16 16 0 0 1 16-20.16h30.88a16 16 0 0 1 16 11.84L666.24 544h203.52l23.04-84.16a16 16 0 0 1 16-11.84h30.88a16 16 0 0 1 14.88 20.16zM683.68 608l34.88 128h98.88l34.88-128z"  horiz-adv-x="1024" />

    
    <glyph glyph-name="sort-ascending" unicode="&#59018;" d="M452.64 187.36a16 16 0 0 1-22.56 0L304 61.28V816a16 16 0 0 1-16 16h-32a16 16 0 0 1-16-16v-754.72l-126.08 126.08a16 16 0 0 1-22.56 0l-22.72-22.72a16 16 0 0 1 0-22.56l192-192a16 16 0 0 1 22.72 0l192 192a16 16 0 0 1 0 22.56zM912 320H624a16 16 0 0 1-16-16v-32a16 16 0 0 1 16-16h208L612.64 36.64a16 16 0 0 1-4.64-11.2V-16a16 16 0 0 1 16-16h288a16 16 0 0 1 16 16v64a16 16 0 0 1-16 16h-32a16 16 0 0 1-16-16v-16H704l219.36 219.36a16 16 0 0 1 4.64 11.2V304a16 16 0 0 1-16 16zM954.56 468.16l-87.36 320a16 16 0 0 1-16 11.84H684.16a16 16 0 0 1-16-11.84l-87.36-320a16 16 0 0 1 16-20.16h30.88a16 16 0 0 1 16 11.84L666.24 544h203.52l23.04-84.16a16 16 0 0 1 16-11.84h30.88a16 16 0 0 1 14.88 20.16zM683.68 608l34.88 128h98.88l34.88-128z"  horiz-adv-x="1024" />

    
    <glyph glyph-name="top-left" unicode="&#59019;" d="M891.36 49.92L253.28 688H544a16 16 0 0 1 16 16v32a16 16 0 0 1-16 16H160a16 16 0 0 1-16-16v-384a16 16 0 0 1 16-16h32a16 16 0 0 1 16 16V642.72l638.08-638.08a16 16 0 0 1 22.56 0l22.72 22.72a16 16 0 0 1 0 22.56z"  horiz-adv-x="1024" />

    
    <glyph glyph-name="vertical-align-top" unicode="&#59020;" d="M576 800m16 0l32 0q16 0 16-16l0-800q0-16-16-16l-32 0q-16 0-16 16l0 800q0 16 16 16ZM768 800m16 0l32 0q16 0 16-16l0-480q0-16-16-16l-32 0q-16 0-16 16l0 480q0 16 16 16ZM192 800m16 0l32 0q16 0 16-16l0-800q0-16-16-16l-32 0q-16 0-16 16l0 800q0 16 16 16ZM384 800m16 0l32 0q16 0 16-16l0-480q0-16-16-16l-32 0q-16 0-16 16l0 480q0 16 16 16Z"  horiz-adv-x="1024" />

    
    <glyph glyph-name="swap-up" unicode="&#59021;" d="M592-16h-32a16 16 0 0 0-16 16V662.08L353.6 483.52a16 16 0 0 0-22.72 0.8l-21.76 23.36a16 16 0 0 0 0 22.56L581.12 784a16 16 0 0 0 26.88-11.04V0a16 16 0 0 0-16-16z"  horiz-adv-x="1024" />

    
    <glyph glyph-name="sort-down" unicode="&#59022;" d="M421.12-16L181.92 205.6a16 16 0 0 0 0 22.72l21.76 23.36a16 16 0 0 0 22.56 0.96l157.76-147.2V784a16 16 0 0 0 16 16h32a16 16 0 0 0 16-16v-788.64a16 16 0 0 0-26.88-11.36zM576-4.64V784a16 16 0 0 0 16 16h32a16 16 0 0 0 16-16v-678.56l158.56 147.2a16 16 0 0 0 22.56-0.96l21.76-23.36a16 16 0 0 0 0-22.72L602.88-16a16 16 0 0 0-26.88 11.36z"  horiz-adv-x="1024" />

    
    <glyph glyph-name="swap-left" unicode="&#59023;" d="M896 288H123.04A16 16 0 0 0 112 314.88l254.4 272a16 16 0 0 0 22.56 0l23.36-21.76a16 16 0 0 0 0.8-22.72L233.92 352H896a16 16 0 0 0 16-16v-32a16 16 0 0 0-16-16z"  horiz-adv-x="1024" />

    
    <glyph glyph-name="up" unicode="&#59024;" d="M862.08 180.64l-345.6 345.6a6.4 6.4 0 0 1-8.96 0l-345.6-345.6a16 16 0 0 0-22.56 0l-22.72 22.72a16 16 0 0 0 0 22.56l384 384a16 16 0 0 0 22.72 0l384-384a16 16 0 0 0 0-22.56l-22.72-22.72a16 16 0 0 0-22.56 0z"  horiz-adv-x="1024" />

    
    <glyph glyph-name="whiteboard" unicode="&#59025;" d="M861.92 720H912a16 16 0 0 1 16 16V768a16 16 0 0 1-16 16H112a16 16 0 0 1-16-16v-32a16 16 0 0 1 16-16h50.24l30.88-449.12a16 16 0 0 1 16-14.88h64l-104.8-261.28a16 16 0 0 1 8.8-20.8l29.76-12a16 16 0 0 1 20.8 8.96L341.76 256h340.64l114.08-285.12a16 16 0 0 1 20.8-8.96l29.6 12a16 16 0 0 1 8.96 20.8L752 256h64a16 16 0 0 1 16 14.88z m-608-394.08L226.4 720h571.36l-27.2-394.08a6.4 6.4 0 0 0-6.4-5.92H259.84a6.4 6.4 0 0 0-6.4 5.92z"  horiz-adv-x="1024" />

    
    <glyph glyph-name="swap-down" unicode="&#59026;" d="M416-4.96V768a16 16 0 0 0 16 16h32a16 16 0 0 0 16-16v-662.08l190.4 178.56a16 16 0 0 0 22.72-0.8l21.76-23.36a16 16 0 0 0 0-22.56L442.88-16a16 16 0 0 0-26.88 11.04z"  horiz-adv-x="1024" />

    
    <glyph glyph-name="sort-right" unicode="&#59027;" d="M667.68 53.12l-23.36 21.76a16 16 0 0 0-0.96 22.56l147.2 158.56H112a16 16 0 0 0-16 16v32a16 16 0 0 0 16 16h788.64a16 16 0 0 0 11.36-26.88l-222.08-240a16 16 0 0 0-22.24 0zM900.64 448H112a16 16 0 0 0-16 16v32a16 16 0 0 0 16 16h678.56l-147.2 158.56a16 16 0 0 0 0.96 22.56l23.36 21.76a16 16 0 0 0 22.72 0l221.6-240a16 16 0 0 0-11.36-26.88z"  horiz-adv-x="1024" />

    
    <glyph glyph-name="swap-right" unicode="&#59028;" d="M900.96 288H128a16 16 0 0 0-16 16v32a16 16 0 0 0 16 16h662.08L611.52 542.4a16 16 0 0 0 0.8 22.72l23.36 21.76a16 16 0 0 0 22.56 0l254.4-272a16 16 0 0 0-11.68-26.88z"  horiz-adv-x="1024" />

    
    <glyph glyph-name="scissor" unicode="&#59029;" d="M782.56 285.44a176 176 0 0 1-112-17.28l-118.56 152.48L796.64 734.4a16 16 0 0 1 3.36 9.76v80a6.4 6.4 0 0 1-11.52 4L512 472.64 235.52 828.32a6.4 6.4 0 0 1-11.52-4v-80a16 16 0 0 1 3.36-9.76l244.16-313.92-118.56-152.48a176 176 0 1 1 50.4-39.36L512 368l108.64-139.68a176 176 0 1 1 161.92 56.64zM272 0a112 112 0 1 0 112 112 112 112 0 0 0-112-112z m480 0a112 112 0 1 0 112 112 112 112 0 0 0-112-112z"  horiz-adv-x="1024" />

    
    <glyph glyph-name="top-right" unicode="&#59030;" d="M864 752H480a16 16 0 0 1-16-16v-32a16 16 0 0 1 16-16h290.72L132.64 49.92a16 16 0 0 1 0-22.56l22.72-22.72a16 16 0 0 1 22.56 0L816 642.72V352a16 16 0 0 1 16-16h32a16 16 0 0 1 16 16V736a16 16 0 0 1-16 16z"  horiz-adv-x="1024" />

    
    <glyph glyph-name="vertical-align-bottom" unicode="&#59031;" d="M576 800m16 0l32 0q16 0 16-16l0-800q0-16-16-16l-32 0q-16 0-16 16l0 800q0 16 16 16ZM768 480m16 0l32 0q16 0 16-16l0-480q0-16-16-16l-32 0q-16 0-16 16l0 480q0 16 16 16ZM192 800m16 0l32 0q16 0 16-16l0-800q0-16-16-16l-32 0q-16 0-16 16l0 800q0 16 16 16ZM384 480m16 0l32 0q16 0 16-16l0-480q0-16-16-16l-32 0q-16 0-16 16l0 480q0 16 16 16Z"  horiz-adv-x="1024" />

    
    <glyph glyph-name="vertical-bar-chart" unicode="&#59032;" d="M96 800m16 0l32 0q16 0 16-16l0-800q0-16-16-16l-32 0q-16 0-16 16l0 800q0 16 16 16ZM224 736m16 0l416 0q16 0 16-16l0-32q0-16-16-16l-416 0q-16 0-16 16l0 32q0 16 16 16ZM224 576m16 0l288 0q16 0 16-16l0-32q0-16-16-16l-288 0q-16 0-16 16l0 32q0 16 16 16ZM224 416m16 0l544 0q16 0 16-16l0-32q0-16-16-16l-544 0q-16 0-16 16l0 32q0 16 16 16ZM224 256m16 0l672 0q16 0 16-16l0-32q0-16-16-16l-672 0q-16 0-16 16l0 32q0 16 16 16ZM224 96m16 0l480 0q16 0 16-16l0-32q0-16-16-16l-480 0q-16 0-16 16l0 32q0 16 16 16Z"  horiz-adv-x="1024" />

    
    <glyph glyph-name="search" unicode="&#59033;" d="M907.36 33.92L691.2 250.08a336 336 0 1 1-45.28-45.28l216.16-216.16a16 16 0 0 1 22.72 0l22.56 22.56a16 16 0 0 1 0 22.72zM160 464a272 272 0 1 0 272-272 272 272 0 0 0-272 272z"  horiz-adv-x="1024" />

    
    <glyph glyph-name="zoom-out" unicode="&#59035;" d="M907.36 33.92L691.2 250.08a336 336 0 1 1-45.28-45.28l216.16-216.16a16 16 0 0 1 22.72 0l22.56 22.56a16 16 0 0 1 0 22.72zM432 192a272 272 0 1 0 272 272 272 272 0 0 0-272-272zM304 496m6.4 0l243.2 0q6.4 0 6.4-6.4l0-51.2q0-6.4-6.4-6.4l-243.2 0q-6.4 0-6.4 6.4l0 51.2q0 6.4 6.4 6.4Z"  horiz-adv-x="1024" />

    
    <glyph glyph-name="zoom-in" unicode="&#59036;" d="M907.36 33.92L691.2 250.08a336 336 0 1 1-45.28-45.28l216.16-216.16a16 16 0 0 1 22.72 0l22.56 22.56a16 16 0 0 1 0 22.72zM432 192a272 272 0 1 0 272 272 272 272 0 0 0-272-272zM553.6 496H464v89.6a6.4 6.4 0 0 1-6.4 6.4h-51.2a6.4 6.4 0 0 1-6.4-6.4V496h-89.6a6.4 6.4 0 0 1-6.4-6.4v-51.2a6.4 6.4 0 0 1 6.4-6.4H400v-89.6a6.4 6.4 0 0 1 6.4-6.4h51.2a6.4 6.4 0 0 1 6.4 6.4V432h89.6a6.4 6.4 0 0 1 6.4 6.4v51.2a6.4 6.4 0 0 1-6.4 6.4z"  horiz-adv-x="1024" />

    
    <glyph glyph-name="heart" unicode="&#59038;" d="M523.36-5.12a16 16 0 0 0-22.72 0L161.28 334.24a257.92 257.92 0 0 0-62.56 262.24A196.8 196.8 0 0 0 112 629.92 257.76 257.76 0 0 0 342.24 771.2a254.24 254.24 0 0 0 169.76-64 256 256 0 0 0 350.72-10.56 256 256 0 0 0 0-362.08zM350.72 707.04a192 192 0 0 1-144-327.52l300.8-300.96a6.24 6.24 0 0 1 8.96 0l296.48 296.48a200.48 200.48 0 0 1 60.64 132 191.04 191.04 0 0 1-56.16 144 190.56 190.56 0 0 1-144 56 200.96 200.96 0 0 1-131.84-60.48L512 617.12l-29.6 29.44a199.52 199.52 0 0 1-131.68 60.48z"  horiz-adv-x="1024" />

    
    <glyph glyph-name="check" unicode="&#59039;" d="M340.8 94.08l-256 256a16 16 0 0 0 0 22.56l22.56 22.56a16 16 0 0 0 22.56 0l217.6-217.44a6.4 6.4 0 0 1 9.12 0L894.08 715.2a16 16 0 0 0 22.72 0l22.56-22.56a16 16 0 0 0 0-22.56l-576-576a16 16 0 0 0-22.56 0z"  horiz-adv-x="1024" />

    
    <glyph glyph-name="minus-circle" unicode="&#59040;" d="M512 800a416 416 0 1 1 416-416A416 416 0 0 1 512 800z m0-768a352 352 0 1 0 352 352 352 352 0 0 0-352-352zM288 416m16 0l416 0q16 0 16-16l0-32q0-16-16-16l-416 0q-16 0-16 16l0 32q0 16 16 16Z"  horiz-adv-x="1024" />

    
    <glyph glyph-name="exclamation" unicode="&#59041;" d="M480 800m16 0l32 0q16 0 16-16l0-608q0-16-16-16l-32 0q-16 0-16 16l0 608q0 16 16 16ZM512 16m-48 0a48 48 0 1 1 96 0 48 48 0 1 1-96 0Z"  horiz-adv-x="1024" />

    
    <glyph glyph-name="code" unicode="&#59042;" d="M317.44 648.96L94.72 394.4a16 16 0 0 1 0-20.96l222.72-254.56a16 16 0 0 1 22.56-1.44l24.16 21.12a16 16 0 0 1 1.44 22.56l-192 218.56a6.56 6.56 0 0 0 0 8.48l192 218.72a16 16 0 0 1-1.44 22.56l-24.16 21.12a16 16 0 0 1-22.56-1.6zM684.16 650.56l-24.16-21.12a16 16 0 0 1-1.44-22.56l192-218.72a6.56 6.56 0 0 0 0-8.48l-192-218.56a16 16 0 0 1 1.44-22.56l24.16-21.12a16 16 0 0 1 22.56 1.44l222.72 254.56a16 16 0 0 1 0 20.96L706.72 648.96a16 16 0 0 1-22.56 1.6z"  horiz-adv-x="1024" />

    
    <glyph glyph-name="download" unicode="&#59043;" d="M842.72 468l-21.44 23.84a16 16 0 0 1-22.56 1.12L544 263.84V784a16 16 0 0 1-16 16h-32a16 16 0 0 1-16-16v-520.16L225.28 492.96a16 16 0 0 1-22.56-1.12l-21.44-23.84a16 16 0 0 1 1.28-22.56l318.72-286.88a16 16 0 0 1 21.44 0L841.6 445.44a16 16 0 0 1 1.12 22.56zM256 64m16 0l480 0q16 0 16-16l0-32q0-16-16-16l-480 0q-16 0-16 16l0 32q0 16 16 16Z"  horiz-adv-x="1024" />

    
    <glyph glyph-name="minus" unicode="&#59045;" d="M96 416m16 0l800 0q16 0 16-16l0-32q0-16-16-16l-800 0q-16 0-16 16l0 32q0 16 16 16Z"  horiz-adv-x="1024" />

    
    <glyph glyph-name="check-circle" unicode="&#59046;" d="M402.24 286.08l-80 90.88a16 16 0 0 1-22.56 1.6l-24.16-21.12a16 16 0 0 1-1.44-22.56l112-128a16 16 0 0 1 23.04-1.12l304 288a16 16 0 0 1 0 22.56l-21.92 23.2a16 16 0 0 1-22.72 0zM512 800a416 416 0 1 1 416-416A416 416 0 0 1 512 800z m0-768a352 352 0 1 0 352 352 352 352 0 0 0-352-352z"  horiz-adv-x="1024" />

    
    <glyph glyph-name="exclamation-triangle" unicode="&#59047;" d="M480 544m16 0l32 0q16 0 16-16l0-192q0-16-16-16l-32 0q-16 0-16 16l0 192q0 16 16 16ZM512 208m-48 0a48 48 0 1 1 96 0 48 48 0 1 1-96 0ZM512 830.88L40 32h944z m0-125.92L872 96h-720z"  horiz-adv-x="1024" />

    
    <glyph glyph-name="close" unicode="&#59048;" d="M891.36 740.64L868.8 763.2a16 16 0 0 1-22.72 0L512 429.12 177.92 763.2a16 16 0 0 1-22.56 0L132.8 740.64a16 16 0 0 1 0-22.56L466.88 384 132.8 49.92a16 16 0 0 1 0-22.72l22.56-22.56a16 16 0 0 1 22.56 0L512 338.72l334.08-334.08a16 16 0 0 1 22.72 0l22.56 22.56a16 16 0 0 1 0 22.72L557.28 384l334.08 334.08a16 16 0 0 1 0 22.56z"  horiz-adv-x="1024" />

    
    <glyph glyph-name="funnel" unicode="&#59049;" d="M584.96-40.32l-160 80a16 16 0 0 0-8.96 14.4V370.72L164.8 622.08a16 16 0 0 0-4.8 11.2V752a16 16 0 0 0 16 16h672a16 16 0 0 0 16-16v-118.72a16 16 0 0 0-4.64-11.2L608 370.72v-396.64a16 16 0 0 0-23.04-14.4zM480 83.68l64-32V390.56a16 16 0 0 0 4.8 11.36L800 653.12V704H224v-50.88l251.36-251.2a16 16 0 0 0 4.64-11.36z"  horiz-adv-x="1024" />

    
    <glyph glyph-name="plus" unicode="&#59050;" d="M912 416H544V784a16 16 0 0 1-16 16h-32a16 16 0 0 1-16-16v-368H112a16 16 0 0 1-16-16v-32a16 16 0 0 1 16-16h368v-368a16 16 0 0 1 16-16h32a16 16 0 0 1 16 16V352h368a16 16 0 0 1 16 16v32a16 16 0 0 1-16 16z"  horiz-adv-x="1024" />

    
    <glyph glyph-name="position" unicode="&#59051;" d="M522.88 11.68l-68.8 309.44a6.24 6.24 0 0 1-4.8 4.8l-309.6 68.8a16 16 0 0 0-3.36 30.08L891.04 784A16 16 0 0 0 912 762.88L552.96 8.16a16 16 0 0 0-30.08 3.52z m-233.12 416l208-46.08a16 16 0 0 0 12.16-12.16L555.2 161.6l241.28 506.72z"  horiz-adv-x="1024" />

    
    <glyph glyph-name="question" unicode="&#59052;" d="M512 16m-48 0a48 48 0 1 1 96 0 48 48 0 1 1-96 0ZM512 800c-186.24 0-339.36-112-351.2-254.24a16 16 0 0 1 16-17.76h32a16 16 0 0 1 16 14.08C234.72 650.24 359.84 736 512 736c158.88 0 288-93.44 288-208s-129.12-208-288-208h-16a16 16 0 0 1-16-16v-160a16 16 0 0 1 16-16h32a16 16 0 0 1 16 16v107.2a6.24 6.24 0 0 0 5.92 6.24C726.24 272 864 387.84 864 528c0 149.92-157.92 272-352 272z"  horiz-adv-x="1024" />

    
    <glyph glyph-name="location" unicode="&#59053;" d="M730.88 723.68a352 352 0 0 1-467.68-524.64L500.8-38.56a16 16 0 0 1 22.56 0l237.6 237.6a352 352 0 0 1-30.08 524.64z m-16-480L516.64 45.12a6.72 6.72 0 0 0-9.12 0L308.48 244.32a288 288 0 1 0 407.2 0zM512 608a160 160 0 1 1 160-160 160 160 0 0 1-160 160z m0-256a96 96 0 1 0 96 96 96 96 0 0 0-96-96z"  horiz-adv-x="1024" />

    
    <glyph glyph-name="star" unicode="&#59054;" d="M763.04-27.52L512 105.44l-251.04-132.96a16 16 0 0 0-23.36 16l48 281.92L82.56 470.56a16 16 0 0 0 8.96 27.36l280.48 40.96 125.6 256a16 16 0 0 0 28.8 0l125.6-256 280.48-40.96a16 16 0 0 0 8.96-27.36L738.4 271.2l48-281.92a16 16 0 0 0-23.36-16.8zM205.6 439.52l142.72-140.32a16 16 0 0 0 4.64-14.08L320 87.52a6.4 6.4 0 0 1 9.28-6.72l176 93.12a16 16 0 0 0 15.04 0l176-93.12a6.4 6.4 0 0 1 9.28 6.72L672 285.12a16 16 0 0 0 4.64 14.08l142.72 140.32a6.4 6.4 0 0 1-3.52 10.88L617.76 480a16 16 0 0 0-12.16 8.64l-87.84 178.88a6.4 6.4 0 0 1-11.52 0L418.4 488a16 16 0 0 0-12.16-8.64l-197.12-28.96a6.4 6.4 0 0 1-3.52-10.88z"  horiz-adv-x="1024" />

    
    <glyph glyph-name="close-circle" unicode="&#59055;" d="M512 800a416 416 0 1 1 416-416A416 416 0 0 1 512 800z m0-768a352 352 0 1 0 352 352 352 352 0 0 0-352-352zM654.08 571.2L512 429.12l-142.08 142.08a16 16 0 0 1-22.56 0l-22.56-22.56a16 16 0 0 1 0-22.56L466.88 384l-142.08-142.08a16 16 0 0 1 0-22.72l22.56-22.56a16 16 0 0 1 22.56 0L512 338.72l142.08-142.08a16 16 0 0 1 22.72 0l22.56 22.56a16 16 0 0 1 0 22.72L557.28 384l142.08 142.08a16 16 0 0 1 0 22.56L676.8 571.2a16 16 0 0 1-22.72 0z"  horiz-adv-x="1024" />

    
    <glyph glyph-name="exclamation-circle" unicode="&#59056;" d="M512 800a416 416 0 1 1 416-416A416 416 0 0 1 512 800z m0-768a352 352 0 1 0 352 352 352 352 0 0 0-352-352zM480 608m16 0l32 0q16 0 16-16l0-224q0-16-16-16l-32 0q-16 0-16 16l0 224q0 16 16 16ZM512 208m-48 0a48 48 0 1 1 96 0 48 48 0 1 1-96 0Z"  horiz-adv-x="1024" />

    
    <glyph glyph-name="plus-circle" unicode="&#59058;" d="M512 800a416 416 0 1 1 416-416A416 416 0 0 1 512 800z m0-768a352 352 0 1 0 352 352 352 352 0 0 0-352-352zM528 608h-32a16 16 0 0 1-16-16v-176H304a16 16 0 0 1-16-16v-32a16 16 0 0 1 16-16h176v-176a16 16 0 0 1 16-16h32a16 16 0 0 1 16 16V352h176a16 16 0 0 1 16 16v32a16 16 0 0 1-16 16H544V592a16 16 0 0 1-16 16z"  horiz-adv-x="1024" />

    
    <glyph glyph-name="upload" unicode="&#59059;" d="M501.28 801.28L182.56 514.4a16 16 0 0 1-1.28-22.56l21.44-23.84a16 16 0 0 1 22.56-1.12L480 696.16V176a16 16 0 0 1 16-16h32a16 16 0 0 1 16 16V696.16l254.72-229.28a16 16 0 0 1 22.56 1.12l21.44 23.84a16 16 0 0 1-1.12 22.56L522.72 801.28a16 16 0 0 1-21.44 0zM256 64m16 0l480 0q16 0 16-16l0-32q0-16-16-16l-480 0q-16 0-16 16l0 32q0 16 16 16Z"  horiz-adv-x="1024" />

    
    <glyph glyph-name="menu" unicode="&#59060;" d="M96 704m16 0l800 0q16 0 16-16l0-32q0-16-16-16l-800 0q-16 0-16 16l0 32q0 16 16 16ZM96 416m16 0l800 0q16 0 16-16l0-32q0-16-16-16l-800 0q-16 0-16 16l0 32q0 16 16 16ZM96 128m16 0l800 0q16 0 16-16l0-32q0-16-16-16l-800 0q-16 0-16 16l0 32q0 16 16 16Z"  horiz-adv-x="1024" />

    
    <glyph glyph-name="question-circle" unicode="&#59061;" d="M512 800a416 416 0 1 1 416-416A416 416 0 0 1 512 800z m0-768a352 352 0 1 0 352 352 352 352 0 0 0-352-352zM512 640c-98.56 0-180-62.24-190.72-142.08a16 16 0 0 1 16-17.92h32a16 16 0 0 1 16 13.12C393.92 539.84 448 576 512 576c70.56 0 128-43.2 128-96s-57.44-96-128-96h-16a16 16 0 0 1-16-16v-64a16 16 0 0 1 16-16h32a16 16 0 0 1 16 16v12.8a6.56 6.56 0 0 0 5.44 6.24c88 14.4 154.56 80 154.56 156.96 0 88.16-86.08 160-192 160zM512 176m-48 0a48 48 0 1 1 96 0 48 48 0 1 1-96 0Z"  horiz-adv-x="1024" />

    
    <glyph glyph-name="cd" unicode="&#59062;" d="M512 800a416 416 0 1 1 416-416A416 416 0 0 1 512 800z m0-768a352 352 0 1 0 352 352 352 352 0 0 0-352-352zM512 544a160 160 0 1 1 160-160 160 160 0 0 1-160 160z m0-256a96 96 0 1 0 96 96 96 96 0 0 0-96-96zM614.08 636.16l-12.32-30.56a16 16 0 0 1 8-20 226.72 226.72 0 0 0 104-104 16 16 0 0 1 20-8l30.56 12.32a16 16 0 0 1 8.32 20.64 290.4 290.4 0 0 1-137.92 138.08 16 16 0 0 1-20.64-8.48z"  horiz-adv-x="1024" />

    
    <glyph glyph-name="key" unicode="&#59063;" d="M925.28 673.44A257.12 257.12 0 0 1 640 792.16a229.92 229.92 0 0 1-65.6-27.04 256 256 0 0 1-72.48-378.08L432 317.6l-56 56.64a16 16 0 0 1-22.72 0L330.72 352a16 16 0 0 1 0-22.72L387.2 272 320 204.48l-56.48 56.64a16 16 0 0 1-22.72 0L217.6 238.4a16 16 0 0 1 0-22.56l56.48-56.64-67.84-67.84-56.48 56.64a16 16 0 0 1-22.72 0l-22.56-22.72a16 16 0 0 1 0-22.56l90.4-90.56a16 16 0 0 1 22.72 0l329.6 329.76a257.76 257.76 0 0 1 241.12-40.48 200.48 200.48 0 0 1 32 13.92A257.92 257.92 0 0 1 952.16 608a228.64 228.64 0 0 1-26.88 65.44z m-85.44-265.28A192 192 0 1 0 896 544a190.56 190.56 0 0 0-56.16-135.84z"  horiz-adv-x="1024" />

    
    <glyph glyph-name="box" unicode="&#59064;" d="M779.2 768H244.96a16 16 0 0 1-15.04-10.72L96.96 386.56a16 16 0 0 1-0.96-5.44V16a16 16 0 0 1 16-16h800a16 16 0 0 1 16 16V381.12a20.32 20.32 0 0 1 0 5.44L794.24 757.28A16 16 0 0 1 779.2 768z m78.4-704H166.4a6.4 6.4 0 0 0-6.4 6.4V313.6a6.4 6.4 0 0 0 6.4 6.4h124a224 224 0 0 1 443.36 0h123.84a6.4 6.4 0 0 0 6.4-6.4v-243.2a6.4 6.4 0 0 0-6.4-6.4zM672 368a175.04 175.04 0 0 0-144-174.24c-101.6-16-176 61.12-176 158.24v16a16 16 0 0 1-16 16H160l116.96 315.84a6.56 6.56 0 0 0 5.92 4.16h458.24a6.56 6.56 0 0 0 6.08-4.16L864 384H688a16 16 0 0 1-16-16z"  horiz-adv-x="1024" />

    
    <glyph glyph-name="locked" unicode="&#59065;" d="M736 448v121.44A228.32 228.32 0 0 1 523.36 800 224 224 0 0 1 288 576v-128h-112a16 16 0 0 1-16-16v-448a16 16 0 0 1 16-16h672a16 16 0 0 1 16 16V432a16 16 0 0 1-16 16z m-384 128a160 160 0 0 0 320 0v-128H352z m441.6-544H230.4a6.4 6.4 0 0 0-6.4 6.4V377.6a6.4 6.4 0 0 0 6.4 6.4h563.2a6.4 6.4 0 0 0 6.4-6.4v-339.2a6.4 6.4 0 0 0-6.4-6.4zM512 320a112 112 0 1 1 112-112 112 112 0 0 1-112 112z m0-160a48 48 0 1 0 48 48 48 48 0 0 0-48-48z"  horiz-adv-x="1024" />

    
    <glyph glyph-name="unlocked" unicode="&#59066;" d="M352 448v122.24A163.84 163.84 0 0 0 501.12 736 160 160 0 0 0 672 590.08a16 16 0 0 1 16-14.08h32a16 16 0 0 1 16 17.44A224 224 0 0 1 500.8 800 228.32 228.32 0 0 1 288 569.44V448h-112a16 16 0 0 1-16-16v-448a16 16 0 0 1 16-16h672a16 16 0 0 1 16 16V432a16 16 0 0 1-16 16z m441.6-416H230.4a6.4 6.4 0 0 0-6.4 6.4V377.6a6.4 6.4 0 0 0 6.4 6.4h563.2a6.4 6.4 0 0 0 6.4-6.4v-339.2a6.4 6.4 0 0 0-6.4-6.4zM480 320m16 0l32 0q16 0 16-16l0-192q0-16-16-16l-32 0q-16 0-16 16l0 192q0 16 16 16Z"  horiz-adv-x="1024" />

    
    <glyph glyph-name="tag" unicode="&#59067;" d="M486.72 768H144a16 16 0 0 1-16-16v-342.72a16 16 0 0 1 4.8-11.2l432-432a16 16 0 0 1 22.56 0l342.72 342.56a16 16 0 0 1 0 22.56l-432 432a16 16 0 0 1-11.36 4.8zM192 432V697.6a6.4 6.4 0 0 0 6.4 6.4H464a6.4 6.4 0 0 0 4.48-1.92l377.6-377.6a6.4 6.4 0 0 0 0-9.12l-265.6-265.6a6.4 6.4 0 0 0-9.12 0l-377.6 377.6A6.4 6.4 0 0 0 192 432zM352 640a96 96 0 1 1 96-96 96 96 0 0 1-96 96z m0-128a32 32 0 1 0 32 32 32 32 0 0 0-32-32z"  horiz-adv-x="1024" />

    
    <glyph glyph-name="trophy" unicode="&#59068;" d="M768 704V784a16 16 0 0 1-16 16H272a16 16 0 0 1-16-16v-80H144a16 16 0 0 1-16-16v-136a152 152 0 0 1 128.8-150.08c6.72-119.68 98.4-210.72 224-224V32H272a16 16 0 0 1-16-16v-32a16 16 0 0 1 16-16h480a16 16 0 0 1 16 16v32a16 16 0 0 1-16 16H544v145.76c124.96 13.44 216.64 104.48 224 224a152 152 0 0 1 128 150.08V688a16 16 0 0 1-16 16z m-576-152v81.6a6.4 6.4 0 0 0 6.4 6.4H256v-172.8a88.48 88.48 0 0 0-64 84.8zM512 240c-111.2 0-192 73.92-192 176V729.6a6.4 6.4 0 0 0 6.4 6.4h371.2a6.4 6.4 0 0 0 6.4-6.4V416c0-102.08-80-176-192-176z m320 312a88.16 88.16 0 0 0-64-84.8V640h57.6a6.4 6.4 0 0 0 6.4-6.4z"  horiz-adv-x="1024" />

    
    <glyph glyph-name="loading-circle" unicode="&#59070;" d="M512 784v-32a16 16 0 0 1 16-16 352 352 0 1 0-368-368 16 16 0 0 1-16 16H112a16 16 0 0 1-16-16A416 416 0 1 1 528 800a16 16 0 0 1-16-16z"  horiz-adv-x="1024" />

    
    <glyph glyph-name="telephone" unicode="&#59071;" d="M707.04 352l-91.2-91.04a6.4 6.4 0 0 0-8.48 0 1313.44 1313.44 0 0 0-115.36 102.88A1313.44 1313.44 0 0 0 389.12 480a6.24 6.24 0 0 0 0 8.48L480 579.2a16 16 0 0 1 0 22.56L299.68 782.88a16 16 0 0 1-22.72 0l-115.2-115.84a159.04 159.04 0 0 1-22.4-196.8 1444.16 1444.16 0 0 1 205.6-253.12 1457.12 1457.12 0 0 1 253.6-206.08 160 160 0 0 1 197.12 23.04l115.04 115.2a16 16 0 0 1 0 22.56L729.6 352a16 16 0 0 1-22.56 0z m43.36-273.6a96 96 0 0 0-117.44-14.08A1406.56 1406.56 0 0 0 390.24 262.4a1397.12 1397.12 0 0 0-196.96 242.24 96 96 0 0 0 13.76 117.12l76.96 77.28a6.4 6.4 0 0 0 8.96 0l104-104a6.4 6.4 0 0 0 0-9.12l-86.24-86.4a16 16 0 0 1-1.44-20.8l8.16-11.04a1362.72 1362.72 0 0 1 129.28-148.8 1377.76 1377.76 0 0 1 148.8-129.28l11.04-8.32a16 16 0 0 1 20.96 1.6l86.24 86.24a6.4 6.4 0 0 0 9.12 0l104-104a6.4 6.4 0 0 0 0-9.12z"  horiz-adv-x="1024" />

    
    <glyph glyph-name="thumb-down" unicode="&#59072;" d="M904.32 346.24L874.56 624a144 144 0 0 1-143.2 128H128a16 16 0 0 1-16-16v-480a16 16 0 0 1 16-16h156.32l107.52-215.2a16 16 0 0 1 14.4-8.8H592a16 16 0 0 1 16 16V233.6a6.4 6.4 0 0 0 6.4 6.4h194.24a91.84 91.84 0 0 1 28 4 96 96 0 0 1 67.68 102.24zM182.4 688H272v-384h-89.6a6.4 6.4 0 0 0-6.4 6.4V681.6a6.4 6.4 0 0 0 6.4 6.4zM832 314.56a32 32 0 0 0-23.84-10.56H560a16 16 0 0 1-16-16v-208h-104.16a6.4 6.4 0 0 0-5.76 3.52L336 279.52V688h395.36a80 80 0 0 0 80-71.52l29.6-277.12a32 32 0 0 0-8.96-24.8z"  horiz-adv-x="1024" />

    
    <glyph glyph-name="chain" unicode="&#59074;" d="M591.04 368h-32a16 16 0 0 1-16-13.6A96 96 0 0 0 435.36 272 98.4 98.4 0 0 0 352 371.36V652.64a98.4 98.4 0 0 0 83.36 98.56 96 96 0 0 0 107.68-81.76 16 16 0 0 1 16-13.44h32a16 16 0 0 1 16 17.92A160 160 0 0 1 437.12 816 163.84 163.84 0 0 1 288 650.24v-276.64A163.84 163.84 0 0 1 437.12 208a160 160 0 0 1 169.92 141.6 16 16 0 0 1-16 18.4zM587.04 560a160 160 0 0 1-169.92-141.6 16 16 0 0 1 16-17.92h32a16 16 0 0 1 16 13.44 96 96 0 0 0 107.68 81.76 98.24 98.24 0 0 0 83.2-99.04v-281.28A98.24 98.24 0 0 0 588.64 16a96 96 0 0 0-107.68 81.6 16 16 0 0 1-16 13.6h-32a16 16 0 0 1-16-18.08A160 160 0 0 1 587.04-48 163.68 163.68 0 0 1 736 117.6V394.24A163.68 163.68 0 0 1 587.04 560z"  horiz-adv-x="1024" />

    
    <glyph glyph-name="music" unicode="&#59075;" d="M352 702.08V272a160 160 0 1 1-85.76-288A162.88 162.88 0 0 1 416 148.64V435.68l448 56V336a160 160 0 1 1-85.76-288A162.88 162.88 0 0 1 928 212.64V770.08a16 16 0 0 1-17.92 16l-544-68a16 16 0 0 1-14.08-16zM256 48a96 96 0 1 0 96 96 96 96 0 0 0-96-96z m160 452.16v153.92a6.24 6.24 0 0 0 5.6 6.24l435.2 54.4a6.24 6.24 0 0 0 7.2-6.24v-152.32zM768 112a96 96 0 1 0 96 96 96 96 0 0 0-96-96z"  horiz-adv-x="1024" />

    
    <glyph glyph-name="chain-broken" unicode="&#59076;" d="M495.04 368h-32a16 16 0 0 1-16-13.6A96 96 0 0 0 339.36 272 98.4 98.4 0 0 0 256 371.36V652.64a98.4 98.4 0 0 0 83.36 98.56 96 96 0 0 0 107.68-81.76 16 16 0 0 1 16-13.44h32a16 16 0 0 1 16 17.92A160 160 0 0 1 341.12 816 163.84 163.84 0 0 1 192 650.24v-276.64A163.84 163.84 0 0 1 341.12 208a160 160 0 0 1 169.92 141.6 16 16 0 0 1-16 18.4zM576 115.36A98.24 98.24 0 0 0 492.64 16a96 96 0 0 0-107.68 81.6 16 16 0 0 1-16 13.6h-32a16 16 0 0 1-16-18.08A160 160 0 0 1 491.04-48 163.68 163.68 0 0 1 640 117.6V144a16 16 0 0 1-16 16h-32a16 16 0 0 1-16-16zM491.04 560a160 160 0 0 1-169.92-141.6 16 16 0 0 1 16-17.92h32a16 16 0 0 1 16 13.44 96 96 0 0 0 107.68 81.76 98.24 98.24 0 0 0 83.2-99.04V368a16 16 0 0 1 16-16h32a16 16 0 0 1 16 16v26.24A163.68 163.68 0 0 1 491.04 560zM681.451738 406.573082m11.313709 11.313708l105.330626 105.330626q11.313708 11.313708 22.627417 0l22.627417-22.627417q11.313708-11.313708 0-22.627417l-105.330626-105.330626q-11.313708-11.313708-22.627417 0l-22.627417 22.627417q-11.313708 11.313708 0 22.627417ZM704 288m16 0l160 0q16 0 16-16l0-32q0-16-16-16l-160 0q-16 0-16 16l0 32q0 16 16 16ZM681.463052 105.16784m11.313708 11.313709l22.627417 22.627417q11.313708 11.313708 22.627417 0l105.330626-105.330627q11.313708-11.313708 0-22.627417l-22.627417-22.627417q-11.313708-11.313708-22.627417 0l-105.330626 105.330627q-11.313708 11.313708 0 22.627417Z"  horiz-adv-x="1024" />

    
    <glyph glyph-name="envelope-opened" unicode="&#59078;" d="M928 512L521.28 798.56a16 16 0 0 1-18.4 0L96 512v-496a16 16 0 0 1 16-16h800a16 16 0 0 1 16 16V512z m-100-6.88l-312.48-208a6.56 6.56 0 0 0-7.2 0l-312.48 208 312.48 223.04a6.56 6.56 0 0 0 7.52 0zM160 64V452.16L503.2 224a16 16 0 0 1 17.76 0L864 452.16V64z"  horiz-adv-x="1024" />

    
    <glyph glyph-name="shopping-bag" unicode="&#59079;" d="M848 768H176.8a16 16 0 0 1-16-16L128 16a16 16 0 0 1 16-16h736.8a16 16 0 0 1 16 16L864 752a16 16 0 0 1-16 16zM193.92 70.56l28.48 627.2a6.4 6.4 0 0 0 6.4 6.24h566.56a6.56 6.56 0 0 0 6.4-6.24l28.48-627.2a6.4 6.4 0 0 0-6.4-6.56h-624a6.4 6.4 0 0 0-5.92 6.56zM512 512a96 96 0 0 0-95.04 82.4 16 16 0 0 1-16 13.6h-32a16 16 0 0 1-16-18.08 160 160 0 0 1 317.92 0 16 16 0 0 1-16 18.08h-32a16 16 0 0 1-16-13.6A96 96 0 0 0 512 512z"  horiz-adv-x="1024" />

    
    <glyph glyph-name="briefcase" unicode="&#59080;" d="M701.12 608a192 192 0 0 1-378.24 0H112a16 16 0 0 1-16-16v-544a16 16 0 0 1 16-16h800a16 16 0 0 1 16 16V592a16 16 0 0 1-16 16z m2.88-64v-448H320V544zM512 704a128 128 0 0 0 123.84-96H388.32A128 128 0 0 0 512 704zM160 544h96v-448h-96z m704-448h-96V544h96z"  horiz-adv-x="1024" />

    
    <glyph glyph-name="thumb-up" unicode="&#59081;" d="M836.64 524a91.84 91.84 0 0 1-28 4H614.4a6.4 6.4 0 0 0-6.4 6.4V736a16 16 0 0 1-16 16H406.24a16 16 0 0 1-14.4-8.96L284.32 528H128a16 16 0 0 1-16-16v-480a16 16 0 0 1 16-16h603.36a144 144 0 0 1 143.2 128l29.76 277.12a96 96 0 0 1-67.68 102.88zM272 80h-89.6a6.4 6.4 0 0 0-6.4 6.4V457.6a6.4 6.4 0 0 0 6.4 6.4H272z m568.64 348.48l-29.6-277.12a80 80 0 0 0-80-71.36H336V488.32l98.08 196.16a6.72 6.72 0 0 0 5.76 3.52h97.76a6.4 6.4 0 0 0 6.4-6.4V480a16 16 0 0 1 16-16h248.8a32 32 0 0 0 32-35.52z"  horiz-adv-x="1024" />

    
    <glyph glyph-name="joystick" unicode="&#59082;" d="M864 490.4A256 256 0 1 1 520.32 320l-48-176H288a96 96 0 0 1-96-96v-80a16 16 0 0 1 16-16h608a16 16 0 0 1 16 16v80a96 96 0 0 1-96 96H539.52l42.56 160A256 256 0 0 1 864 490.4zM768 48v-32H256v32a32 32 0 0 0 32 32h448a32 32 0 0 0 32-32zM432 606.4a192 192 0 1 0 135.84-235.2A192 192 0 0 0 432 606.4z"  horiz-adv-x="1024" />

    
    <glyph glyph-name="envelope" unicode="&#59084;" d="M96 688v-608a16 16 0 0 1 16-16h800a16 16 0 0 1 16 16V688a16 16 0 0 1-16 16H112a16 16 0 0 1-16-16z m704-48L515.84 426.88a6.24 6.24 0 0 0-7.68 0L224 640zM160 134.4V608l342.4-256a16 16 0 0 1 19.2 0L864 608v-473.6a6.4 6.4 0 0 0-6.4-6.4H166.4a6.4 6.4 0 0 0-6.4 6.4z"  horiz-adv-x="1024" />

    
    <glyph glyph-name="eye-closed" unicode="&#59086;" d="M923.84 582.24l-24.96 20a16 16 0 0 1-22.24-2.4A477.92 477.92 0 0 0 512 432 477.92 477.92 0 0 0 147.52 599.84a16 16 0 0 1-22.24 2.4l-24.96-20A16 16 0 0 1 97.92 560a540.8 540.8 0 0 1 180.64-138.88l-76-151.84a16 16 0 0 1 7.2-21.6l28.64-14.24a16 16 0 0 1 21.44 6.56l78.24 156.48A536.32 536.32 0 0 1 480 368.96V192a16 16 0 0 1 16-16h32a16 16 0 0 1 16 16V368.96a536.16 536.16 0 0 1 142.08 27.52L764.32 240a16 16 0 0 1 21.44-7.2l28.64 14.24a16 16 0 0 1 7.2 21.6l-76 151.84A541.92 541.92 0 0 1 926.08 560a16 16 0 0 1-2.24 22.24z"  horiz-adv-x="1024" />

    
    <glyph glyph-name="user" unicode="&#59087;" d="M512 336a224 224 0 1 1-224 224 224 224 0 0 1 224-224z m0 384a160 160 0 1 0-160-160 160 160 0 0 0 160 160zM720 272H304a144 144 0 0 1-144-144v-128a16 16 0 0 1 16-16h672a16 16 0 0 1 16 16v128a144 144 0 0 1-144 144z m73.6-224H230.4a6.4 6.4 0 0 0-6.4 6.4V128a80 80 0 0 0 80 80h416a80 80 0 0 0 80-80v-73.6a6.4 6.4 0 0 0-6.4-6.4z"  horiz-adv-x="1024" />

    
    <glyph glyph-name="gear" unicode="&#59088;" d="M512 544a160 160 0 1 1 160-160 160 160 0 0 1-160 160z m0-256a96 96 0 1 0 96 96 96 96 0 0 0-96-96zM928 288V480a16 16 0 0 1-16 16h-100.32c-2.56 7.04-5.44 13.92-8.48 20.64l70.88 70.88a16 16 0 0 1 0 22.72l-135.68 135.68a16 16 0 0 1-22.72 0l-70.88-70.88c-6.72 3.04-13.76 5.92-20.8 8.48V784a16 16 0 0 1-16 16H416a16 16 0 0 1-16-16v-100.48c-7.04-2.56-13.92-5.44-20.64-8.48l-70.88 70.88a16 16 0 0 1-22.72 0l-135.68-135.68a16 16 0 0 1 0-22.72l70.88-70.88c-3.04-6.72-5.92-13.6-8.48-20.64H112a16 16 0 0 1-16-16v-192a16 16 0 0 1 16-16h100.48c2.56-7.04 5.44-14.08 8.48-20.8l-70.88-70.88a16 16 0 0 1 0-22.72l135.68-135.68a16 16 0 0 1 22.72 0l70.88 70.88c6.72-3.04 13.6-5.92 20.64-8.48V-16a16 16 0 0 1 16-16h192a16 16 0 0 1 16 16v100.32c7.04 2.56 14.08 5.44 20.8 8.48l70.88-70.88a16 16 0 0 1 22.72 0l135.68 135.68a16 16 0 0 1 0 22.72L803.2 251.2c3.04 6.72 5.92 13.76 8.48 20.8H912a16 16 0 0 1 16 16z m-137.6-123.52l-58.88-58.88a6.4 6.4 0 0 0-8.96 0l-62.4 62.4a6.56 6.56 0 0 1-7.68 1.12l-16.8-9.12a253.12 253.12 0 0 0-52.48-21.6l-18.56-5.44a6.4 6.4 0 0 1-4.64-6.08v-88.48a6.4 6.4 0 0 0-6.4-6.4h-83.2a6.4 6.4 0 0 0-6.4 6.4v88.32a6.08 6.08 0 0 1-4.64 6.08l-18.4 5.44A249.44 249.44 0 0 0 388.48 160l-16.8 9.28a6.56 6.56 0 0 1-7.68-1.12l-62.4-62.4a6.4 6.4 0 0 0-8.96 0l-58.88 58.88a6.24 6.24 0 0 0 0 8.96l62.4 62.4a6.88 6.88 0 0 1 1.12 7.68L288 260.32a262.08 262.08 0 0 0-21.6 52.48l-5.28 18.56a6.56 6.56 0 0 1-6.08 4.64H166.4a6.4 6.4 0 0 0-6.4 6.4v83.2a6.4 6.4 0 0 0 6.4 6.4h88.48a6.24 6.24 0 0 1 6.08 4.64l5.28 18.4A258.24 258.24 0 0 0 288 507.52l9.44 16.8a6.88 6.88 0 0 1-1.12 7.68l-62.4 62.4a6.24 6.24 0 0 0 0 8.96l58.88 58.88a6.24 6.24 0 0 0 8.96 0l62.4-62.4a6.88 6.88 0 0 1 7.68-1.12l16.64 9.28a258.24 258.24 0 0 0 52.48 21.6l18.4 5.28a6.24 6.24 0 0 1 4.64 6.08V729.6a6.4 6.4 0 0 0 6.4 6.4h83.2a6.4 6.4 0 0 0 6.4-6.4v-88.48a6.56 6.56 0 0 1 4.64-6.08l18.56-5.28A262.08 262.08 0 0 0 635.68 608l16.8-9.44a6.88 6.88 0 0 1 7.68 1.12l62.4 62.4a6.24 6.24 0 0 0 8.96 0l58.88-58.88a6.4 6.4 0 0 0 0-8.96l-62.4-62.4a6.56 6.56 0 0 1-1.12-7.68l9.12-16.64a249.44 249.44 0 0 0 21.6-52.48l5.44-18.4a6.08 6.08 0 0 1 6.08-4.64h88.48a6.4 6.4 0 0 0 6.4-6.4v-83.2a6.4 6.4 0 0 0-6.4-6.4h-88.32a6.4 6.4 0 0 1-6.08-4.64l-5.44-18.56A253.12 253.12 0 0 0 736 260.32l-9.28-16.8a6.56 6.56 0 0 1 1.12-7.68l62.4-62.4a6.4 6.4 0 0 0 0.16-8.96z"  horiz-adv-x="1024" />

    
    <glyph glyph-name="umbrella" unicode="&#59092;" d="M519.52 800C304 804 128 622.56 128 407.36V368a16 16 0 0 1 16-16h336v-253.28A65.6 65.6 0 0 0 422.4 32a64 64 0 0 0-68.96 50.56 16 16 0 0 1-16 13.12h-32a16 16 0 0 1-16-18.24A128 128 0 0 1 424.64-32 130.88 130.88 0 0 1 544 100.32V352h336a16 16 0 0 1 16 16v48A384 384 0 0 1 519.52 800zM192 416a320 320 0 0 0 640 0z"  horiz-adv-x="1024" />

    
    <glyph glyph-name="history" unicode="&#59093;" d="M971.36 385.92l-128 128a16 16 0 0 1-22.56 0l-128-128a16 16 0 0 1 0-22.72l22.56-22.56a16 16 0 0 1 22.56 0L800 402.72v-10.88C800 218.56 665.6 70.72 492.32 64A320 320 0 1 0 704 613.28a16 16 0 0 1 22.24 0l23.52 21.92a16 16 0 0 1 0 23.04A384 384 0 1 1 864 384v18.72l62.08-62.08a16 16 0 0 1 22.72 0l22.56 22.56a16 16 0 0 1 0 22.72zM445.92 396.32l-135.36-121.92a16 16 0 0 1-1.28-22.56l21.44-23.84a16 16 0 0 1 22.56-1.12l153.44 138.08a16 16 0 0 1 5.28 11.84V592a16 16 0 0 1-16 16h-32a16 16 0 0 1-16-16v-190.88a5.92 5.92 0 0 0-2.08-4.8z"  horiz-adv-x="1024" />

    
    <glyph glyph-name="calendar" unicode="&#59094;" d="M736 688v48a16 16 0 0 1-16 16h-32a16 16 0 0 1-16-16v-48H352v48a16 16 0 0 1-16 16h-32a16 16 0 0 1-16-16v-48H112a16 16 0 0 1-16-16v-640a16 16 0 0 1 16-16h800a16 16 0 0 1 16 16V672a16 16 0 0 1-16 16z m121.6-608H166.4a6.4 6.4 0 0 0-6.4 6.4V464h704v-377.6a6.4 6.4 0 0 0-6.4-6.4zM160 528v89.6a6.4 6.4 0 0 0 6.4 6.4h691.2a6.4 6.4 0 0 0 6.4-6.4V528zM288 384m16 0l32 0q16 0 16-16l0-32q0-16-16-16l-32 0q-16 0-16 16l0 32q0 16 16 16ZM416 384m16 0l32 0q16 0 16-16l0-32q0-16-16-16l-32 0q-16 0-16 16l0 32q0 16 16 16ZM544 384m16 0l32 0q16 0 16-16l0-32q0-16-16-16l-32 0q-16 0-16 16l0 32q0 16 16 16ZM672 384m16 0l32 0q16 0 16-16l0-32q0-16-16-16l-32 0q-16 0-16 16l0 32q0 16 16 16ZM288 224m16 0l32 0q16 0 16-16l0-32q0-16-16-16l-32 0q-16 0-16 16l0 32q0 16 16 16ZM416 224m16 0l32 0q16 0 16-16l0-32q0-16-16-16l-32 0q-16 0-16 16l0 32q0 16 16 16ZM544 224m16 0l32 0q16 0 16-16l0-32q0-16-16-16l-32 0q-16 0-16 16l0 32q0 16 16 16ZM672 224m16 0l32 0q16 0 16-16l0-32q0-16-16-16l-32 0q-16 0-16 16l0 32q0 16 16 16Z"  horiz-adv-x="1024" />

    
    <glyph glyph-name="mouse" unicode="&#59101;" d="M480 640m16 0l32 0q16 0 16-16l0-160q0-16-16-16l-32 0q-16 0-16 16l0 160q0 16 16 16ZM512 800a288 288 0 0 1-288-288v-256a288 288 0 0 1 576 0V512A288 288 0 0 1 512 800z m224-544a224 224 0 0 0-448 0V512a224 224 0 0 0 448 0z"  horiz-adv-x="1024" />

    
    <glyph glyph-name="magnet" unicode="&#59102;" d="M672 752v-362.56A163.52 163.52 0 0 0 522.72 224 160 160 0 0 0 352 384V752a16 16 0 0 1-16 16H144a16 16 0 0 1-16-16v-359.36C128 177.28 304-4 519.52 0A384 384 0 0 1 896 384V752a16 16 0 0 1-16 16H688a16 16 0 0 1-16-16z m64-48h96v-96h-96z m-544 0h96v-96h-96z m320-640a320 320 0 0 0-320 320V544h96v-160a224 224 0 0 1 448 0V544h96v-160a320 320 0 0 0-320-320z"  horiz-adv-x="1024" />

    
    <glyph glyph-name="headset" unicode="&#59085;" d="M499.52 768C273.28 760.96 96 569.44 96 343.04V16a16 16 0 0 1 16-16h176a16 16 0 0 1 16 16V272a16 16 0 0 1-16 16h-128v55.36C160 533.92 308 696.48 498.4 704A352 352 0 0 0 864 352v-64h-128a16 16 0 0 1-16-16v-256a16 16 0 0 1 16-16h176a16 16 0 0 1 16 16V352A416 416 0 0 1 499.52 768zM240 64h-80V224h80z m624 0h-80V224h80z"  horiz-adv-x="1024" />

    
    <glyph glyph-name="bike" unicode="&#59069;" d="M768 384h-1.28l-56.48 320H752a16 16 0 0 1 16 16V752a16 16 0 0 1-16 16H592a16 16 0 0 1-16-16v-32a16 16 0 0 1 16-16h53.28l22.56-128h-268.8l21.6 75.52a16 16 0 0 1-16 20.48H228a114.72 114.72 0 0 1-115.04-97.28 112 112 0 0 1 92.96-125.28 16 16 0 0 1 18.08 16v33.28a16 16 0 0 1-12 14.72 48 48 0 0 0-35.04 56A49.28 49.28 0 0 0 225.92 608h115.68l-64-225.28A187.68 187.68 0 0 1 256 384a192.8 192.8 0 1 1 82.72-19.04L380.8 512h298.24L704 372.64a192 192 0 1 1 64 11.36zM384 192a128 128 0 1 0-124.8 128l-29.6-103.68a16 16 0 0 1 10.4-20l30.72-8.8a16 16 0 0 1 19.84 11.04l29.6 103.52A128 128 0 0 0 384 192z m368-128a128 128 0 0 0-37.76 243.52l18.72-106.24a16 16 0 0 1 18.56-12.96l32 5.6a16 16 0 0 1 12.96 18.56L778.08 320a128 128 0 1 0-25.28-256z"  horiz-adv-x="1024" />

    
    <glyph glyph-name="bulb" unicode="&#59073;" d="M816 512a304 304 0 1 1-448-267.52V192a16 16 0 0 1 16-16h256a16 16 0 0 1 16 16v52.48A304 304 0 0 1 816 512zM610.72 293.44l-9.28-4.32a16 16 0 0 1-9.44-14.56v-28.16a6.4 6.4 0 0 0-6.4-6.4h-147.2a6.4 6.4 0 0 0-6.4 6.4v28.16a16 16 0 0 1-9.44 14.56l-9.44 4.32a240 240 0 1 0 197.6 0zM400 128m16 0l192 0q16 0 16-16l0-32q0-16-16-16l-192 0q-16 0-16 16l0 32q0 16 16 16ZM432 16m16 0l128 0q16 0 16-16l0-32q0-16-16-16l-128 0q-16 0-16 16l0 32q0 16 16 16Z"  horiz-adv-x="1024" />

    
    <glyph glyph-name="link" unicode="&#59083;" d="M352 416m16 0l288 0q16 0 16-16l0-32q0-16-16-16l-288 0q-16 0-16 16l0 32q0 16 16 16ZM400 272h-144a112 112 0 0 0-111.04 126.72A114.72 114.72 0 0 0 260 496H400a16 16 0 0 1 16 16v32a16 16 0 0 1-16 16h-138.72a179.52 179.52 0 0 1-180.48-159.04A176 176 0 0 1 256 208h144a16 16 0 0 1 16 16v32a16 16 0 0 1-16 16zM944 400.96A179.2 179.2 0 0 1 762.88 560H624a16 16 0 0 1-16-16v-32a16 16 0 0 1 16-16h140.16a114.4 114.4 0 0 0 114.88-97.28A112 112 0 0 0 768 272h-144a16 16 0 0 1-16-16v-32a16 16 0 0 1 16-16h144a176 176 0 0 1 176 192.96z"  horiz-adv-x="1024" />

    
    <glyph glyph-name="medal" unicode="&#59089;" d="M592 208h-48V435.52a16 16 0 0 1-19.04 16l-83.52-16.8a16 16 0 0 1-12.48-18.72l6.24-32a16 16 0 0 1 18.88-12.64l25.92 5.6V208h-48a16 16 0 0 1-16-16v-32a16 16 0 0 1 16-16h160a16 16 0 0 1 16 16v32a16 16 0 0 1-16 16zM932.64 779.52a16 16 0 0 1-16 20.48H628a16 16 0 0 1-16-11.68L560 604a289.12 289.12 0 0 1-96 0L411.52 788.32a16 16 0 0 1-16 11.68H106.88a16 16 0 0 1-16-20.48l114.08-400A320 320 0 1 1 832 288a323.84 323.84 0 0 1-13.44 92zM172.8 727.84a6.4 6.4 0 0 0 6.24 8.16h176a6.56 6.56 0 0 0 6.24-4.64l40.8-144a320 320 0 0 1-154.88-120.64zM512 32a256 256 0 1 0 256 256 256 256 0 0 0-256-256z m264.96 435.52a320 320 0 0 1-155.04 120.64l40.96 143.2a6.56 6.56 0 0 0 6.08 4.64h176a6.4 6.4 0 0 0 6.24-8.16z"  horiz-adv-x="1024" />

    
    <glyph glyph-name="link-broken" unicode="&#59090;" d="M233.356875 617.296173m11.313709 11.313709l22.627417 22.627417q11.313708 11.313708 22.627417 0l105.330626-105.330627q11.313708-11.313708 0-22.627417l-22.627417-22.627417q-11.313708-11.313708-22.627417 0l-105.330626 105.330627q-11.313708 11.313708 0 22.627417ZM480 704m16 0l32 0q16 0 16-16l0-160q0-16-16-16l-32 0q-16 0-16 16l0 160q0 16 16 16ZM617.368189 534.710787m11.313708 11.313709l105.330626 105.330626q11.313708 11.313708 22.627417 0l22.627417-22.627417q11.313708-11.313708 0-22.627417l-105.330626-105.330626q-11.313708-11.313708-22.627417 0l-22.627417 22.627417q-11.313708 11.313708 0 22.627417ZM400 448h-138.72a179.52 179.52 0 0 1-180.48-159.04A176 176 0 0 1 256 96h144a16 16 0 0 1 16 16v32a16 16 0 0 1-16 16h-144a112 112 0 0 0-111.04 126.72A114.72 114.72 0 0 0 260 384H400a16 16 0 0 1 16 16v32a16 16 0 0 1-16 16zM944 288.96A179.2 179.2 0 0 1 762.88 448H624a16 16 0 0 1-16-16v-32a16 16 0 0 1 16-16h140.16a114.4 114.4 0 0 0 114.88-97.28A112 112 0 0 0 768 160h-144a16 16 0 0 1-16-16v-32a16 16 0 0 1 16-16h144a176 176 0 0 1 176 192.96z"  horiz-adv-x="1024" />

    
    <glyph glyph-name="eye" unicode="&#59091;" d="M512 544a160 160 0 1 1 160-160 160 160 0 0 1-160 160z m0-256a96 96 0 1 0 96 96 96 96 0 0 0-96-96zM960 392l-4.48 8C852.8 577.92 699.36 672 512 672S171.36 577.92 68.32 400l-4.32-8a16 16 0 0 1 0-16l4.64-8.16C171.36 189.92 324.8 96 512 96s340.8 93.92 443.84 272l4.16 8a16 16 0 0 1 0 16z m-71.68-11.52C822.72 275.68 706.08 160 512 160S201.44 275.68 135.52 380.48a6.08 6.08 0 0 0 0 6.88C201.44 492.32 318.08 608 512 608s310.72-115.68 376.64-220.64a6.72 6.72 0 0 0 0-6.88z"  horiz-adv-x="1024" />

    
    <glyph glyph-name="stopwatch" unicode="&#59095;" d="M544 702.4V736h80a16 16 0 0 1 16 16V784a16 16 0 0 1-16 16H400a16 16 0 0 1-16-16v-32a16 16 0 0 1 16-16h80v-33.6a368 368 0 1 1 64 0zM512 32a304 304 0 1 0 304 304 304 304 0 0 0-304-304zM512 544m-32 0a32 32 0 1 1 64 0 32 32 0 1 1-64 0ZM512 128m-32 0a32 32 0 1 1 64 0 32 32 0 1 1-64 0ZM720 336m-32 0a32 32 0 1 1 64 0 32 32 0 1 1-64 0ZM304 336m-32 0a32 32 0 1 1 64 0 32 32 0 1 1-64 0ZM364.96 188.8m-32 0a32 32 0 1 1 64 0 32 32 0 1 1-64 0ZM659.2 188.8m-32 0a32 32 0 1 1 64 0 32 32 0 1 1-64 0ZM342.4 505.6a32 32 0 1 1 45.28 0 32 32 0 0 1-45.28 0zM489.318723 358.638694m11.313708 11.313708l137.348421 137.348422q11.313708 11.313708 22.627417 0l22.627417-22.627417q11.313708-11.313708 0-22.627417l-137.348421-137.348422q-11.313708-11.313708-22.627417 0l-22.627417 22.627417q-11.313708 11.313708 0 22.627417Z"  horiz-adv-x="1024" />

    
    <glyph glyph-name="keyboard" unicode="&#59096;" d="M224 576m16 0l32 0q16 0 16-16l0-32q0-16-16-16l-32 0q-16 0-16 16l0 32q0 16 16 16ZM352 576m16 0l32 0q16 0 16-16l0-32q0-16-16-16l-32 0q-16 0-16 16l0 32q0 16 16 16ZM480 576m16 0l32 0q16 0 16-16l0-32q0-16-16-16l-32 0q-16 0-16 16l0 32q0 16 16 16ZM608 576m16 0l32 0q16 0 16-16l0-32q0-16-16-16l-32 0q-16 0-16 16l0 32q0 16 16 16ZM736 576m16 0l32 0q16 0 16-16l0-32q0-16-16-16l-32 0q-16 0-16 16l0 32q0 16 16 16ZM288 416m16 0l32 0q16 0 16-16l0-32q0-16-16-16l-32 0q-16 0-16 16l0 32q0 16 16 16ZM416 416m16 0l32 0q16 0 16-16l0-32q0-16-16-16l-32 0q-16 0-16 16l0 32q0 16 16 16ZM544 416m16 0l32 0q16 0 16-16l0-32q0-16-16-16l-32 0q-16 0-16 16l0 32q0 16 16 16ZM672 416m16 0l32 0q16 0 16-16l0-32q0-16-16-16l-32 0q-16 0-16 16l0 32q0 16 16 16ZM320 256m16 0l352 0q16 0 16-16l0-32q0-16-16-16l-352 0q-16 0-16 16l0 32q0 16 16 16ZM912 736H112a16 16 0 0 1-16-16v-672a16 16 0 0 1 16-16h800a16 16 0 0 1 16 16V720a16 16 0 0 1-16 16z m-48-633.6a6.4 6.4 0 0 0-6.4-6.4H166.4a6.4 6.4 0 0 0-6.4 6.4V665.6a6.4 6.4 0 0 0 6.4 6.4h691.2a6.4 6.4 0 0 0 6.4-6.4z"  horiz-adv-x="1024" />

    
    <glyph glyph-name="time" unicode="&#59097;" d="M544 416V656a16 16 0 0 1-16 16h-32a16 16 0 0 1-16-16v-288a16 16 0 0 1 16-16h224a16 16 0 0 1 16 16v32a16 16 0 0 1-16 16zM512 800a416 416 0 1 1 416-416A416 416 0 0 1 512 800z m0-768a352 352 0 1 0 352 352 352 352 0 0 0-352-352z"  horiz-adv-x="1024" />

    
    <glyph glyph-name="shopping-cart" unicode="&#59098;" d="M877.12 269.12l69.92 384a16 16 0 0 1-16 18.88H281.6l-11.84 82.24a16 16 0 0 1-16 13.76H96a16 16 0 0 1-16-16v-32a16 16 0 0 1 16-16h116.32l62.08-434.4a16 16 0 0 1 16-13.6h571.2a16 16 0 0 1 15.52 13.12z m-4.8 331.2l-50.08-275.2A6.24 6.24 0 0 0 816 320H337.28a6.4 6.4 0 0 0-6.24 5.44l-39.36 275.2a6.56 6.56 0 0 0 6.4 7.36h568a6.4 6.4 0 0 0 6.24-7.68zM352 224a112 112 0 1 1 112-112 112 112 0 0 1-112 112z m0-160a48 48 0 1 0 48 48 48 48 0 0 0-48-48zM768 224a112 112 0 1 1 112-112 112 112 0 0 1-112 112z m0-160a48 48 0 1 0 48 48 48 48 0 0 0-48-48z"  horiz-adv-x="1024" />

    
    <glyph glyph-name="loading" unicode="&#59099;" d="M480 816m16 0l32 0q16 0 16-16l0-112q0-16-16-16l-32 0q-16 0-16 16l0 112q0 16 16 16ZM480 96m16 0l32 0q16 0 16-16l0-112q0-16-16-16l-32 0q-16 0-16 16l0 112q0 16 16 16ZM800 416m16 0l112 0q16 0 16-16l0-32q0-16-16-16l-112 0q-16 0-16 16l0 32q0 16 16 16ZM80 416m16 0l112 0q16 0 16-16l0-32q0-16-16-16l-112 0q-16 0-16 16l0 32q0 16 16 16ZM692.938954 610.281552m11.313708 11.313709l79.19596 79.195959q11.313708 11.313708 22.627417 0l22.627417-22.627417q11.313708-11.313708 0-22.627417l-79.19596-79.195959q-11.313708-11.313708-22.627417 0l-22.627417 22.627417q-11.313708 11.313708 0 22.627417ZM183.82364 101.150238m11.313708 11.313709l79.19596 79.195959q11.313708 11.313708 22.627417 0l22.627417-22.627417q11.313708-11.313708 0-22.627417l-79.19596-79.195959q-11.313708-11.313708-22.627417 0l-22.627417 22.627417q-11.313708 11.313708 0 22.627417ZM692.938954 157.730095m11.313708 11.313708l22.627417 22.627417q11.313708 11.313708 22.627417 0l79.19596-79.195959q11.313708-11.313708 0-22.627417l-22.627417-22.627417q-11.313708-11.313708-22.627417 0l-79.19596 79.195959q-11.313708 11.313708 0 22.627417ZM183.818954 666.850095m11.313708 11.313708l22.627417 22.627417q11.313708 11.313708 22.627417 0l79.19596-79.195959q11.313708-11.313708 0-22.627417l-22.627417-22.627417q-11.313708-11.313708-22.627417 0l-79.19596 79.195959q-11.313708 11.313708 0 22.627417Z"  horiz-adv-x="1024" />

    
    <glyph glyph-name="tv" unicode="&#59100;" d="M768 512m-32 0a32 32 0 1 1 64 0 32 32 0 1 1-64 0ZM768 384m-32 0a32 32 0 1 1 64 0 32 32 0 1 1-64 0ZM768 256m-32 0a32 32 0 1 1 64 0 32 32 0 1 1-64 0ZM912 736H112a16 16 0 0 1-16-16v-672a16 16 0 0 1 16-16h800a16 16 0 0 1 16 16V720a16 16 0 0 1-16 16z m-48-633.6a6.4 6.4 0 0 0-6.4-6.4H166.4a6.4 6.4 0 0 0-6.4 6.4V665.6a6.4 6.4 0 0 0 6.4 6.4h691.2a6.4 6.4 0 0 0 6.4-6.4zM656 608H240a16 16 0 0 1-16-16v-416a16 16 0 0 1 16-16h416a16 16 0 0 1 16 16V592a16 16 0 0 1-16 16z m-48-377.6a6.4 6.4 0 0 0-6.4-6.4H294.4a6.4 6.4 0 0 0-6.4 6.4V537.6a6.4 6.4 0 0 0 6.4 6.4h307.2a6.4 6.4 0 0 0 6.4-6.4z"  horiz-adv-x="1024" />

    
    <glyph glyph-name="clock" unicode="&#59103;" d="M512 704a368 368 0 1 1 368-368 368 368 0 0 1-368 368z m0-672a304 304 0 1 0 304 304 304 304 0 0 0-304-304zM477.44 350.08L377.6 275.2a16 16 0 0 1-3.2-22.4l19.2-25.6a16 16 0 0 1 22.4-3.2l121.6 91.2a16 16 0 0 1 6.4 12.8V544a16 16 0 0 1-16 16h-32a16 16 0 0 1-16-16v-188.8a6.24 6.24 0 0 0-2.56-5.12zM167.009788 709.520812m13.857803 7.997581l166.29363 95.970978q13.857803 7.997581 21.855384-5.860221l15.995163-27.715605q7.997581-13.857803-5.860221-21.855384l-166.293631-95.970978q-13.857803-7.997581-21.855384 5.860221l-15.995162 27.715605q-7.997581 13.857803 5.860221 21.855384ZM631.088868 765.966192m8 13.856407l16 27.712813q8 13.856406 21.856406 5.856406l166.276878-96q13.856406-8 5.856406-21.856406l-16-27.712813q-8-13.856406-21.856406-5.856407l-166.276878 96q-13.856406 8-5.856406 21.856407Z"  horiz-adv-x="1024" />

    
    <glyph glyph-name="download-cloud" unicode="&#59037;" d="M523.36 158.08a16 16 0 0 0-22.56 0l-160 160a16 16 0 0 0 0 22.56l22.56 22.56a16 16 0 0 0 22.56 0L480 269.12V528a16 16 0 0 0 16 16h32a16 16 0 0 0 16-16v-258.88l94.08 94.08a16 16 0 0 0 22.72 0l22.56-22.56a16 16 0 0 0 0-22.56zM780.32 507.68A272 272 0 0 1 240 477.76 224 224 0 0 1 272 32h464a240 240 0 0 1 44.32 475.68zM736 96H272a160 160 0 0 0-1.12 320h36.16L304 452.96V464a208 208 0 0 0 416 13.12l1.76-27.84 27.84-2.08A176 176 0 0 0 736 96z"  horiz-adv-x="1024" />

    
    <glyph glyph-name="upload-cloud" unicode="&#59044;" d="M523.36 529.92a16 16 0 0 1-22.56 0l-160-160a16 16 0 0 1 0-22.72l22.56-22.56a16 16 0 0 1 22.56 0L480 418.72V160a16 16 0 0 1 16-16h32a16 16 0 0 1 16 16V418.72l94.08-94.08a16 16 0 0 1 22.72 0l22.56 22.56a16 16 0 0 1 0 22.72zM780.32 507.68A272 272 0 0 1 240 477.76 224 224 0 0 1 272 32h464a240 240 0 0 1 44.32 475.68zM736 96H272a160 160 0 0 0-1.12 320h36.16L304 452.96V464a208 208 0 0 0 416 13.12l1.76-27.84 27.84-2.08A176 176 0 0 0 736 96z"  horiz-adv-x="1024" />

    
    <glyph glyph-name="compass" unicode="&#59057;" d="M512 800a416 416 0 1 1 416-416A416 416 0 0 1 512 800z m0-768a352 352 0 1 0 352 352 352 352 0 0 0-352-352zM512 384m-32 0a32 32 0 1 1 64 0 32 32 0 1 1-64 0ZM710.72 601.92l-328.8-75.84a16 16 0 0 1-12-12l-75.84-328.8a16 16 0 0 1 19.2-19.2l328.8 75.84a16 16 0 0 1 12 12l75.84 328.8a16 16 0 0 1-19.2 19.2z m-112-300.48a6.24 6.24 0 0 0-4.8-4.8L384 248a6.4 6.4 0 0 0-8 8l48 210.88a6.24 6.24 0 0 0 4.8 4.8L640 520a6.4 6.4 0 0 0 7.68-7.68z"  horiz-adv-x="1024" />

    
    <glyph glyph-name="android" unicode="&#59104;" d="M802.24 516.8l105.12 105.28a16 16 0 0 1 0 22.56L884.8 667.2a16 16 0 0 1-22.72 0l-112-112a446.08 446.08 0 0 1-476 0l-112 112a16 16 0 0 1-22.56 0L116.8 644.64a16 16 0 0 1 0-22.56l105.12-105.28A447.04 447.04 0 0 1 64 176v-16a16 16 0 0 1 16-16h864a16 16 0 0 1 16 16v16a446.88 446.88 0 0 1-157.76 340.8zM136.48 208a6.4 6.4 0 0 0-6.4 7.04 384 384 0 0 0 764 0 6.56 6.56 0 0 0-6.56-7.04zM352 368m-32 0a32 32 0 1 1 64 0 32 32 0 1 1-64 0ZM672 368m-32 0a32 32 0 1 1 64 0 32 32 0 1 1-64 0Z"  horiz-adv-x="1024" />

    
    <glyph glyph-name="windows" unicode="&#59105;" d="M96 654.08v-540.32a16 16 0 0 1 14.08-16l800-100a16 16 0 0 1 17.92 16V754.08a16 16 0 0 1-17.92 16l-800-100a16 16 0 0 1-14.08-16zM864 416H480V651.68l376.8 47.04a6.24 6.24 0 0 0 7.2-6.24zM416 643.68V416H160V606.08a6.24 6.24 0 0 0 5.6 6.24zM160 352h256v-227.84l-250.4 32a6.24 6.24 0 0 0-5.6 6.4z m320-235.84V352h384v-276.48a6.4 6.4 0 0 0-7.2-6.4z"  horiz-adv-x="1024" />

    
    <glyph glyph-name="macos" unicode="&#59106;" d="M512 800a416 416 0 1 1 416-416A416 416 0 0 1 512 800z m0-768a352 352 0 1 0 352 352 352 352 0 0 0-352-352zM614.4 608L512 444.32 409.76 608H334.4l140-224-140-224h75.36L512 323.52 614.4 160h75.36l-140 224 140 224H614.4z"  horiz-adv-x="1024" />

    
    <glyph glyph-name="chrome" unicode="&#59107;" d="M512 800a416 416 0 1 1 416-416A416 416 0 0 1 512 800z m0-64a352 352 0 0 0 295.04-160H512a192 192 0 0 1-192-179.52l-129.6 130.4A352 352 0 0 0 512 736z m128-352a128 128 0 0 0-25.6-76.64l-20.16-21.44A128 128 0 1 0 640 384z m-480 0a349.44 349.44 0 0 0 8.16 74.72l193.12-193.28A191.04 191.04 0 0 1 506.08 192l-126.56-134.56A352 352 0 0 0 160 384z m352-352a362.08 362.08 0 0 0-64 5.76l192 203.36a193.28 193.28 0 0 1 22.88 24.32A191.2 191.2 0 0 1 654.72 512H840A352 352 0 0 0 512 32z"  horiz-adv-x="1024" />

    
    <glyph glyph-name="safari" unicode="&#59108;" d="M512 800a416 416 0 1 1 416-416A416 416 0 0 1 512 800z m203.04-704l-15.2 26.4a16 16 0 0 1-21.92 5.6l-27.68-16a16 16 0 0 1-5.92-21.76l16-26.56A352 352 0 0 0 544 33.44V64a16 16 0 0 1-16 16h-32a16 16 0 0 1-16-16v-30.56A349.76 349.76 0 0 0 364.48 64l16 26.56a16 16 0 0 1-6.56 21.44l-27.68 16a16 16 0 0 1-21.92-5.76L309.12 96A353.6 353.6 0 0 0 224 180.96l26.4 15.2a16 16 0 0 1 5.92 21.92l-16 27.68a16 16 0 0 1-21.92 5.92l-26.4-16A352 352 0 0 0 161.6 352H192a16 16 0 0 1 16 16v32a16 16 0 0 1-16 16h-30.4a349.76 349.76 0 0 0 30.4 115.52l26.4-16a16 16 0 0 1 21.92 5.92l16 27.68a16 16 0 0 1-5.92 21.92L224 586.88A354.4 354.4 0 0 0 309.12 672l15.2-26.4a16 16 0 0 1 21.92-5.92l27.68 16a16 16 0 0 1 5.92 21.92l-16 26.4A349.76 349.76 0 0 0 480 734.4V704a16 16 0 0 1 16-16h32a16 16 0 0 1 16 16v30.4a352 352 0 0 0 115.68-30.4l-16-26.4a16 16 0 0 1 5.92-21.92l27.68-16a16 16 0 0 1 21.92 5.92l15.84 26.4A353.6 353.6 0 0 0 800 586.88l-26.4-15.2a16 16 0 0 1-5.6-21.92l16-27.68a16 16 0 0 1 21.76-5.92l26.56 16A349.76 349.76 0 0 0 862.56 416H832a16 16 0 0 1-16-16v-32a16 16 0 0 1 16-16h30.56A352 352 0 0 0 832 236.32l-26.56 16a16 16 0 0 1-21.76-5.92l-16-27.68a16 16 0 0 1 5.76-21.92l26.4-15.2a352.96 352.96 0 0 0-84.8-85.6zM356 208l241.6 80a16 16 0 0 1 10.08 10.08l80 241.6A16 16 0 0 1 668 560l-241.6-80a16 16 0 0 1-10.08-10.08l-80-241.6A16 16 0 0 1 356 208z m116.48 219.84l124.8 41.6-41.6-124.8a7.04 7.04 0 0 0-4-4l-124.8-41.6 41.6 124.8a6.24 6.24 0 0 0 4 3.68z"  horiz-adv-x="1024" />

    
    <glyph glyph-name="ie" unicode="&#59109;" d="M878.4 592.96c44.64 84.16 50.72 144 18.24 176-36.48 36.16-106.88 23.68-208.64-37.6-12.16-7.2-24.64-16-37.28-23.68a352 352 0 0 1-462.4-461.92c-8.32-12.64-16-25.12-23.68-37.28C103.36 106.24 90.72 35.84 128 0a73.92 73.92 0 0 1 55.04-20.48c32 0 71.84 12.8 120.64 38.72 0 0-31.04 30.4-47.04 48-57.28-27.52-80-23.68-83.36-20.96s-8.16 41.44 51.04 137.76a352 352 0 0 1 584.48 11.68 16 16 0 0 1-5.6 22.24l-27.68 16a16 16 0 0 1-21.6-5.44A288 288 0 0 0 262.56 240c25.6 35.68 55.52 73.28 88.48 112H848a16 16 0 0 1 16 16v16a352 352 0 0 1-150.24 288c96 59.2 133.76 55.04 137.76 51.04s6.56-26.08-20.96-83.36c17.44-15.68 47.84-46.72 47.84-46.72zM512 672a290.56 290.56 0 0 0 74.24-9.92 1893.76 1893.76 0 0 1-187.36-164.96c-26.88-26.88-52.48-54.08-76.8-81.12h-96A288 288 0 0 0 512 672zM234.08 309.76a281.76 281.76 0 0 0-8.32 42.24h41.6c-11.36-14.24-22.72-28.32-33.28-42.24zM790.88 416H409.12c11.52 12 23.2 23.84 35.04 35.84A1738.08 1738.08 0 0 0 656 633.44a288 288 0 0 0 142.24-210.08 6.56 6.56 0 0 0-7.36-7.36z"  horiz-adv-x="1024" />

    
    <glyph glyph-name="html5" unicode="&#59110;" d="M160 783.2l32-666.72a16 16 0 0 1 9.44-13.76L505.6-32a16 16 0 0 1 12.96 0l304 134.88a16 16 0 0 1 9.44 13.76l32.8 666.56a16 16 0 0 1-16 16H176a16 16 0 0 1-16-16z m605.44-635.68l-250.72-112a6.08 6.08 0 0 0-5.28 0l-250.88 112a6.56 6.56 0 0 0-3.68 5.6l-28.8 576a6.56 6.56 0 0 0 6.4 6.72h559.2a6.56 6.56 0 0 0 6.4-6.72l-28.8-576a6.72 6.72 0 0 0-3.84-5.6zM652.96 393.12l-11.2-145.12a6.08 6.08 0 0 0-3.52-5.12l-123.36-61.76a7.2 7.2 0 0 0-5.76 0L384 243.84000000000003a7.04 7.04 0 0 0-3.52 4.64l-9.92 58.24a16 16 0 0 1-16 13.28h-32a16 16 0 0 1-16-18.56l14.88-90.72a16 16 0 0 1 8.64-11.84L504.96 112a16 16 0 0 1 14.24 0l175.2 87.36a16 16 0 0 1 8.8 13.12l18.08 234.24a16 16 0 0 1-16 17.28H371.68a6.4 6.4 0 0 0-6.4 5.92l-10.08 131.2a6.4 6.4 0 0 0 6.4 6.88h360.32a16 16 0 0 1 16 13.92l4 32a16 16 0 0 1-16 18.08H302.72a16 16 0 0 1-16-17.28l18.4-240a16 16 0 0 1 16-14.72h325.44a6.4 6.4 0 0 0 6.4-6.88z"  horiz-adv-x="1024" />

    
    <glyph glyph-name="css3" unicode="&#59111;" d="M160 783.2l32-666.72a16 16 0 0 1 9.44-13.76L505.6-32a16 16 0 0 1 12.96 0l304 134.88a16 16 0 0 1 9.44 13.76l32.8 666.56a16 16 0 0 1-16 16H176a16 16 0 0 1-16-16z m605.44-635.68l-250.72-112a6.08 6.08 0 0 0-5.28 0l-250.88 112a6.56 6.56 0 0 0-3.68 5.6l-28.8 576a6.56 6.56 0 0 0 6.4 6.72h559.2a6.56 6.56 0 0 0 6.4-6.72l-28.8-576a6.72 6.72 0 0 0-3.84-5.6zM658.4 464H320a16 16 0 0 1-16-16v-32a16 16 0 0 1 16-16h333.44l-11.68-152a6.08 6.08 0 0 0-3.52-5.12l-123.36-61.76a7.2 7.2 0 0 0-5.76 0L384 243.84000000000003a7.04 7.04 0 0 0-3.52 4.64l-9.92 58.24a16 16 0 0 1-16 13.28h-32a16 16 0 0 1-16-18.56l14.88-90.72a16 16 0 0 1 8.64-11.84L504.96 112a16 16 0 0 1 14.24 0l175.2 87.36a16 16 0 0 1 8.8 13.12l16 216.96 17.28 225.28a16 16 0 0 1-16 17.28H304a16 16 0 0 1-16-16v-32a16 16 0 0 1 16-16h358.56a6.4 6.4 0 0 0 6.4-6.88z"  horiz-adv-x="1024" />

    
    <glyph glyph-name="wechat" unicode="&#59112;" d="M512 784C282.72 784 96 611.68 96 400a366.08 366.08 0 0 1 91.2-240l-34.56-138.08A16 16 0 0 1 176 3.84l128 64A440.16 440.16 0 0 1 512 16c229.44 0 416 172.16 416 384S741.44 784 512 784z m0-704a376.32 376.32 0 0 0-192 51.52l-15.04 8.96-52.96-26.56a6.4 6.4 0 0 0-9.12 7.2l14.24 57.28-12 12.64A304 304 0 0 0 160 400c0 176 157.92 320 352 320s352-144 352-320-157.92-320-352-320zM384 464m-32 0a32 32 0 1 1 64 0 32 32 0 1 1-64 0ZM640 464m-32 0a32 32 0 1 1 64 0 32 32 0 1 1-64 0Z"  horiz-adv-x="1024" />

    
    <glyph glyph-name="qq" unicode="&#59113;" d="M384 576m-32 0a32 32 0 1 1 64 0 32 32 0 1 1-64 0ZM640 576m-32 0a32 32 0 1 1 64 0 32 32 0 1 1-64 0ZM499.52 800C273.28 792.96 96 601.44 96 375.04V112a16 16 0 0 1 16-16h496v-112a16 16 0 0 1 16-16h192a16 16 0 0 1 16 16v112h80a16 16 0 0 1 16 16V384A416 416 0 0 1 499.52 800zM761.6 32h-83.2a6.4 6.4 0 0 0-6.4 6.4V96h96v-57.6a6.4 6.4 0 0 0-6.4-6.4z m102.4 134.4a6.4 6.4 0 0 0-6.4-6.4H166.4a6.4 6.4 0 0 0-6.4 6.4V224h704zM160 288v96a352 352 0 0 0 704 0v-96zM512 504c-104 0-216-27.52-216-88s112-88 216-88 216 27.52 216 88-111.84 88-216 88z m0-128c-108 0-164.64 29.28-168 39.52 3.36 11.04 60 40.48 168 40.48s163.2-28.64 168-40c-4.8-11.52-61.44-40-168-40z"  horiz-adv-x="1024" />

    
    <glyph glyph-name="refresh" unicode="&#59077;" d="M971.36 382.08l-128-128a16 16 0 0 0-22.56 0l-128 128a16 16 0 0 0 0 22.56l22.56 22.56a16 16 0 0 0 22.56 0L800 365.12v11.04C800 549.44 665.6 697.12 492.32 704A320 320 0 1 1 704 154.72a16 16 0 0 0 22.24 0l23.52-21.92a16 16 0 0 0 0-22.88A384 384 0 1 0 864 384v-18.88l62.08 62.08a16 16 0 0 0 22.72 0l22.56-22.56a16 16 0 0 0 0-22.56z"  horiz-adv-x="1024" />

    
    <glyph glyph-name="chat" unicode="&#59114;" d="M928 384C928 604.48 741.44 784 512 784S96 604.48 96 384s186.72-400 416-400a426.72 426.72 0 0 1 156.64 29.28l187.04-34.24a16 16 0 0 1 17.6 22.08l-50.4 116.96A388.8 388.8 0 0 1 928 384zM661.76 80l-8.8-3.68A364.96 364.96 0 0 0 512 48c-194.08 0-352 150.72-352 336s157.92 336 352 336 352-150.72 352-336a326.4 326.4 0 0 0-101.28-235.84l-16-16 27.36-64a6.4 6.4 0 0 0-7.04-8.8z"  horiz-adv-x="1024" />

    
    <glyph glyph-name="chat-line" unicode="&#59115;" d="M928 384C928 604.48 741.44 784 512 784S96 604.48 96 384s186.72-400 416-400a426.72 426.72 0 0 1 156.64 29.28l187.04-34.24a16 16 0 0 1 17.6 22.08l-50.4 116.96A388.8 388.8 0 0 1 928 384zM661.76 80l-8.8-3.68A364.96 364.96 0 0 0 512 48c-194.08 0-352 150.72-352 336s157.92 336 352 336 352-150.72 352-336a326.4 326.4 0 0 0-101.28-235.84l-16-16 27.36-64a6.4 6.4 0 0 0-7.04-8.8zM320 512m16 0l352 0q16 0 16-16l0-32q0-16-16-16l-352 0q-16 0-16 16l0 32q0 16 16 16ZM320 320m16 0l352 0q16 0 16-16l0-32q0-16-16-16l-352 0q-16 0-16 16l0 32q0 16 16 16Z"  horiz-adv-x="1024" />

    
    <glyph glyph-name="speaker" unicode="&#59116;" d="M928 384a208 208 0 0 1-176 205.28V795.2a16 16 0 0 1-23.68 13.92L313.12 576a5.12 5.12 0 0 0-3.04-0.8H112a16 16 0 0 1-16-16V208a16 16 0 0 1 16-16h198.08a6.56 6.56 0 0 0 3.04 0l416-232.48a16 16 0 0 1 22.88 13.12V178.72A208 208 0 0 1 928 384zM678.56 59.84L332 253.92a16 16 0 0 1-7.84 2.08H166.4a6.4 6.4 0 0 0-6.4 6.4V505.6a6.4 6.4 0 0 0 6.4 6.4h157.76a16 16 0 0 1 7.84 1.92l346.56 194.08a6.4 6.4 0 0 0 9.44-5.6v-636.96a6.4 6.4 0 0 0-9.44-5.6zM752 243.68V524.16a144 144 0 0 0 0-280.48z"  horiz-adv-x="1024" />

    
    <glyph glyph-name="fast-forward" unicode="&#59117;" d="M931.68 396.48l-361.6 289.28a16 16 0 0 1-26.08-12.48v-286.72l-373.92 299.2a16 16 0 0 1-26.08-12.48v-578.56a16 16 0 0 1 26.08-12.64L544 381.44v-286.72a16 16 0 0 1 26.08-12.64l361.6 289.44a16 16 0 0 1 0 24.96zM208 208V560a6.4 6.4 0 0 0 10.4 5.12l220.16-176a6.56 6.56 0 0 0 0-10.08l-220.16-176A6.4 6.4 0 0 0 208 208z m410.4 357.12l220.16-176a6.56 6.56 0 0 0 0-10.08l-220.16-176A6.4 6.4 0 0 0 608 208V560a6.4 6.4 0 0 0 10.4 5.12z"  horiz-adv-x="1024" />

    
    <glyph glyph-name="fast-backward" unicode="&#59118;" d="M854.08 685.76L480 386.56V673.28a16 16 0 0 1-25.92 12.48L92.48 396.48a16 16 0 0 1 0-24.96l361.6-289.28a16 16 0 0 1 25.92 12.48V381.44l374.08-299.2a16 16 0 0 1 25.92 12.48V673.28a16 16 0 0 1-25.92 12.48z m-448-482.88l-220 176a6.56 6.56 0 0 0 0 10.08l220 176A6.4 6.4 0 0 0 416 560v-352a6.4 6.4 0 0 0-10.4-5.12z m400 0l-220 176a6.56 6.56 0 0 0 0 10.08l220 176A6.4 6.4 0 0 0 816 560v-352a6.4 6.4 0 0 0-10.4-5.12z"  horiz-adv-x="1024" />

    
    <glyph glyph-name="play" unicode="&#59119;" d="M224 763.68v-759.52a16 16 0 0 1 24-13.76l656 379.68a16 16 0 0 1 0 27.68L248 777.6a16 16 0 0 1-24-13.92z m73.6-88.8l492.96-285.44a6.4 6.4 0 0 0 0-11.04L297.6 92.96a6.4 6.4 0 0 0-9.6 5.6V669.28a6.4 6.4 0 0 0 9.6 5.6z"  horiz-adv-x="1024" />

    
    <glyph glyph-name="speaker-disabled" unicode="&#59120;" d="M364 532l-46.88 46.88L139.36 756.64a16 16 0 0 1-22.56 0l-22.72-22.56a16 16 0 0 1 0-22.72L229.6 576H112a16 16 0 0 1-16-16v-352a16 16 0 0 1 16-16h199.68l416-233.28a16 16 0 0 1 24.32 13.92v80.8l87.52-87.36a16 16 0 0 1 22.56 0l22.72 22.56a16 16 0 0 1 0 22.56L364 532z m314.56-472.16L332 253.92a16 16 0 0 1-7.84 2.08H166.4a6.4 6.4 0 0 0-6.4 6.4V505.6a6.4 6.4 0 0 0 6.4 6.4h128L688 117.44v-52a6.4 6.4 0 0 0-9.44-5.6zM688 702.4v-404l107.84-107.68A208 208 0 0 1 752 589.28V795.2a16 16 0 0 1-23.68 13.92L375.04 611.36l47.04-46.88 256 144a6.4 6.4 0 0 0 9.92-6.08z m64-178.24a144 144 0 0 0 0-280.48z"  horiz-adv-x="1024" />

    
    <glyph glyph-name="video-recorder-disabled" unicode="&#59121;" d="M224 672L139.36 756.64a16 16 0 0 1-22.56 0l-22.72-22.56a16 16 0 0 1 0-22.72L133.6 672H112a16 16 0 0 1-16-16v-544a16 16 0 0 1 16-16h597.6l129.92-129.92a16 16 0 0 1 22.56 0l22.72 22.56a16 16 0 0 1 0 22.56L288 608z m421.6-512H166.4a6.4 6.4 0 0 0-6.4 6.4V601.6a6.4 6.4 0 0 0 6.4 6.4h31.2zM768 493.12V656a16 16 0 0 1-16 16H314.56l64-64H697.6a6.4 6.4 0 0 0 6.4-6.4v-320l64-64v57.12l132.8-132.64a16 16 0 0 1 27.2 11.2V614.56a16 16 0 0 1-27.2 11.36z m96-224l-96 96v37.6l96 96z"  horiz-adv-x="1024" />

    
    <glyph glyph-name="microphone-disabled" unicode="&#59122;" d="M416 640a96 96 0 0 0 192 0v-192a94.72 94.72 0 0 0-16-53.28l45.76-45.76A160 160 0 0 1 672 448V640a160 160 0 0 1-320 0v-5.6l64-64zM784 448h-32a16 16 0 0 1-16-14.4 222.24 222.24 0 0 0-52.96-129.6l45.28-45.28A286.4 286.4 0 0 1 800 432a16 16 0 0 1-16 16zM622.88 182.56l152.8-152.64a16 16 0 0 1 22.4 0l22.72 22.88a16 16 0 0 1 0 22.4l-140 140-45.76 45.76-46.56 46.56-48 48-336 336a16 16 0 0 1-22.4 0l-24-21.6a16 16 0 0 1 0-22.4L352 453.44V448a160 160 0 0 1 160-160h5.28l55.68-55.84A224 224 0 0 0 288 432a16 16 0 0 1-16 16h-32a16 16 0 0 1-16-16 288 288 0 0 1 256-270.24V32h-112a16 16 0 0 1-16-16v-32a16 16 0 0 1 16-16h288a16 16 0 0 1 16 16v32a16 16 0 0 1-16 16h-112v129.76a286.56 286.56 0 0 1 78.88 20.8z"  horiz-adv-x="1024" />

    
    <glyph glyph-name="pause" unicode="&#59123;" d="M288 752m16 0l32 0q16 0 16-16l0-704q0-16-16-16l-32 0q-16 0-16 16l0 704q0 16 16 16ZM672 752m16 0l32 0q16 0 16-16l0-704q0-16-16-16l-32 0q-16 0-16 16l0 704q0 16 16 16Z"  horiz-adv-x="1024" />

    
    <glyph glyph-name="video-recorder" unicode="&#59124;" d="M768 493.12V656a16 16 0 0 1-16 16H112a16 16 0 0 1-16-16v-544a16 16 0 0 1 16-16h640a16 16 0 0 1 16 16V274.72l132.8-132.64a16 16 0 0 1 27.2 11.2V614.56a16 16 0 0 1-27.2 11.36zM697.6 160H166.4a6.4 6.4 0 0 0-6.4 6.4V601.6a6.4 6.4 0 0 0 6.4 6.4h531.2a6.4 6.4 0 0 0 6.4-6.4v-435.2a6.4 6.4 0 0 0-6.4-6.4zM864 269.12l-96 96v37.6l96 96z"  horiz-adv-x="1024" />

    
    <glyph glyph-name="microphone" unicode="&#59125;" d="M512 288a160 160 0 0 1 160 160V640a160 160 0 0 1-320 0v-192a160 160 0 0 1 160-160z m-96 352a96 96 0 0 0 192 0v-192a96 96 0 0 0-192 0zM784 448h-32a16 16 0 0 1-16-16 224 224 0 0 0-448 0 16 16 0 0 1-16 16h-32a16 16 0 0 1-16-16 288 288 0 0 1 256-270.24V32h-112a16 16 0 0 1-16-16v-32a16 16 0 0 1 16-16h288a16 16 0 0 1 16 16v32a16 16 0 0 1-16 16h-112v129.76A288 288 0 0 1 800 432a16 16 0 0 1-16 16z"  horiz-adv-x="1024" />

    
    <glyph glyph-name="stop" unicode="&#59126;" d="M160 720v-672a16 16 0 0 1 16-16h672a16 16 0 0 1 16 16V720a16 16 0 0 1-16 16H176a16 16 0 0 1-16-16z m633.6-624H230.4a6.4 6.4 0 0 0-6.4 6.4V665.6a6.4 6.4 0 0 0 6.4 6.4h563.2a6.4 6.4 0 0 0 6.4-6.4v-563.2a6.4 6.4 0 0 0-6.4-6.4z"  horiz-adv-x="1024" />

    
    <glyph glyph-name="picture" unicode="&#59127;" d="M96 720v-672a16 16 0 0 1 16-16h800a16 16 0 0 1 16 16V720a16 16 0 0 1-16 16H112a16 16 0 0 1-16-16z m70.4-48h691.2a6.4 6.4 0 0 0 6.4-6.4v-279.04l-121.12 96.96A16 16 0 0 1 720 480l-152.48-212.96a6.24 6.24 0 0 0-7.52-2.24l-144 57.6a16 16 0 0 1-19.04-5.6L240 96h-73.6a6.4 6.4 0 0 0-6.4 6.4V665.6a6.4 6.4 0 0 0 6.4 6.4z m151.84-576l106.4 148.8a6.24 6.24 0 0 0 7.52 2.24l144-57.44a16 16 0 0 1 18.88 5.44l144 201.28a6.24 6.24 0 0 0 9.12 1.28L864 304v-201.6a6.4 6.4 0 0 0-6.4-6.4zM320 416a96 96 0 1 1-96 96 96 96 0 0 1 96-96z m0 128a32 32 0 1 0-32-32 32 32 0 0 0 32 32z"  horiz-adv-x="1024" />

    
    <glyph glyph-name="pull-streaming" unicode="&#59128;" d="M736 128c-58.56 0-97.12-28.96-131.2-54.4-29.76-22.4-55.36-41.6-92.8-41.6s-63.04 19.2-92.8 41.6C385.28 99.04 346.72 128 288 128s-97.12-28.96-131.2-54.4c-25.92-19.52-48-36.64-78.72-40.8a16 16 0 0 1-14.08-16v-32a16 16 0 0 1 17.76-16c48.96 5.12 83.04 31.2 113.44 53.6S250.72 64 288 64s63.04-19.36 92.8-41.6c34.08-25.6 72.64-54.4 131.2-54.4s97.28 28.8 131.2 54.4c29.76 22.24 55.52 41.6 92.8 41.6s63.04-19.36 92.8-41.6 64-48 113.44-53.6A16 16 0 0 1 960-16v32a16 16 0 0 1-13.92 16c-30.08 4.16-52.96 21.28-78.88 40.8C833.28 99.04 794.72 128 736 128zM867.2 233.6C833.28 259.04 794.72 288 736 288s-97.12-28.96-131.2-54.4C575.04 211.2 549.44 192 512 192s-63.04 19.2-92.8 41.6C385.28 259.04 346.72 288 288 288s-97.12-28.96-131.2-54.4c-25.92-19.52-48-36.64-78.72-40.8a16 16 0 0 1-14.08-16v-32a16 16 0 0 1 17.76-16c48.96 5.12 83.04 31.2 113.44 53.6S250.72 224 288 224s63.04-19.36 92.8-41.6c34.08-25.6 72.64-54.4 131.2-54.4s97.28 28.8 131.2 54.4c29.76 22.24 55.52 41.6 92.8 41.6s63.04-19.36 92.8-41.6 64-48 113.44-53.6A16 16 0 0 1 960 144v32a16 16 0 0 1-13.92 16c-30.08 4.96-52.96 22.08-78.88 41.6zM683.36 468.64L660.8 491.2a16 16 0 0 1-22.72 0L544 397.12V784a16 16 0 0 1-16 16h-32a16 16 0 0 1-16-16v-386.88l-94.08 94.08a16 16 0 0 1-22.56 0l-22.56-22.56a16 16 0 0 1 0-22.56l160-160a16 16 0 0 1 22.56 0l160 160a16 16 0 0 1 0 22.56z"  horiz-adv-x="1024" />

    
    <glyph glyph-name="replay" unicode="&#59129;" d="M52.8 382.08l128-128a16 16 0 0 1 22.56 0l128 128a16 16 0 0 1 0 22.56L308.8 427.2a16 16 0 0 1-22.72 0L224 365.12v11.04C224 549.44 358.56 697.12 531.68 704a320 320 0 1 0-210.88-549.28 16 16 0 0 1-22.24 0l-23.36-21.44a16 16 0 0 1 0-22.88A384 384 0 1 1 160 384v-18.88L97.92 427.2a16 16 0 0 1-22.56 0L52.8 404.64a16 16 0 0 1 0-22.56z"  horiz-adv-x="1024" />

    
    <glyph glyph-name="camera" unicode="&#59130;" d="M790.88 548.64l-59.36 208a16 16 0 0 1-16 11.68H308a16 16 0 0 1-16-11.68l-59.36-208a6.4 6.4 0 0 0-6.24-4.64H112a16 16 0 0 1-16-16v-512a16 16 0 0 1 16-16h800a16 16 0 0 1 16 16V528a16 16 0 0 1-16 16h-115.04a6.24 6.24 0 0 0-6.08 4.64zM857.6 64H166.4a6.4 6.4 0 0 0-6.4 6.4V473.6a6.4 6.4 0 0 0 6.4 6.4h101.76a16 16 0 0 1 16 11.52l59.36 208a6.56 6.56 0 0 0 6.08 4.64h325.44a6.56 6.56 0 0 0 6.24-4.64l59.36-208a16 16 0 0 1 16-11.52h100.96a6.4 6.4 0 0 0 6.4-6.4v-403.2a6.4 6.4 0 0 0-6.4-6.4zM512 512a192 192 0 1 1 192-192 192 192 0 0 1-192 192z m0-320a128 128 0 1 0 128 128 128 128 0 0 0-128-128z"  horiz-adv-x="1024" />

    
    <glyph glyph-name="push-streaming" unicode="&#59131;" d="M828.8 745.6C799.04 723.2 773.44 704 736 704s-63.04 19.2-92.8 41.6C609.28 771.04 570.72 800 512 800s-97.12-28.96-131.2-54.4C351.04 723.2 325.44 704 288 704s-63.04 19.2-92.8 41.6-64 48-113.44 53.44a16 16 0 0 1-17.76-16v-32a16 16 0 0 1 14.08-16c30.08-4.16 52.8-21.28 78.72-40.64 34.08-25.6 72.64-54.4 131.2-54.4s97.28 28.8 131.2 54.4c29.76 22.24 55.52 41.6 92.8 41.6s63.04-19.36 92.8-41.6c34.08-25.6 72.64-54.4 131.2-54.4s97.28 28.8 131.2 54.4c25.92 19.36 48 36.48 78.88 40.64a16 16 0 0 1 13.92 16v32a16 16 0 0 1-17.76 16C893.44 793.92 859.36 768 828.8 745.6zM736 544c-37.28 0-63.04 19.2-92.8 41.6-33.92 25.44-72.48 54.4-131.2 54.4s-97.12-28.96-131.2-54.4C351.04 563.2 325.44 544 288 544s-63.04 19.2-92.8 41.6-64 48-113.44 53.44a16 16 0 0 1-17.76-16v-32a16 16 0 0 1 14.08-16c30.08-4.16 52.8-21.28 78.72-40.64 34.08-25.6 72.64-54.4 131.2-54.4s97.28 28.8 131.2 54.4c29.76 22.24 55.52 41.6 92.8 41.6s63.04-19.36 92.8-41.6c34.08-25.6 72.64-54.4 131.2-54.4s97.28 28.8 131.2 54.4c25.92 19.36 48 36.48 78.88 40.64a16 16 0 0 1 13.92 16v32a16 16 0 0 1-17.76 16c-48-5.12-82.88-30.72-113.44-53.44S773.44 544 736 544zM340.8 299.2l22.56-22.56a16 16 0 0 1 22.56 0L480 370.72V-16a16 16 0 0 1 16-16h32a16 16 0 0 1 16 16V370.72l94.08-94.08a16 16 0 0 1 22.72 0l22.56 22.56a16 16 0 0 1 0 22.72l-160 160a16 16 0 0 1-22.56 0l-160-160a16 16 0 0 1 0-22.72z"  horiz-adv-x="1024" />

    
    <glyph glyph-name="camera-disabled" unicode="&#59132;" d="M792.16 544L731.52 756.32a16 16 0 0 1-16 11.68H308a16 16 0 0 1-16-11.68l-13.92-48L330.56 656l12.32 43.36a6.56 6.56 0 0 0 6.08 4.64h326.08a6.56 6.56 0 0 0 6.24-4.64l59.36-208a16 16 0 0 1 16-11.52h100.96a6.4 6.4 0 0 0 6.4-6.4v-352l64-64V528a16 16 0 0 1-16 16zM675.84 220.16l-48 48-192 192-23.52 23.52L139.36 756.64a16 16 0 0 1-22.56 0l-22.72-22.56a16 16 0 0 1 0-22.72l144-144-6.24-23.36H112a16 16 0 0 1-16-16v-512a16 16 0 0 1 16-16h693.6l33.92-33.92a16 16 0 0 1 22.56 0l22.72 22.56a16 16 0 0 1 0 22.56L832 64z m-266.24 176l178.4-178.72A126.56 126.56 0 0 0 512 192a128 128 0 0 0-102.4 204zM160 70.4V473.6a6.4 6.4 0 0 0 6.4 6.4h101.76a16 16 0 0 1 16 11.52l6.72 23.68 73.92-73.76a192 192 0 0 1 268.64-269.44L741.6 64H166.4a6.4 6.4 0 0 0-6.4 6.4zM636.32 350.24l64-64A184.16 184.16 0 0 1 704 320a192 192 0 0 1-192 192 186.72 186.72 0 0 1-34.24-3.36l64-64a128 128 0 0 0 94.56-94.4z"  horiz-adv-x="1024" />

    
    <glyph glyph-name="sound-wave" unicode="&#59133;" d="M96 528m16 0l32 0q16 0 16-16l0-256q0-16-16-16l-32 0q-16 0-16 16l0 256q0 16 16 16ZM224 576m16 0l32 0q16 0 16-16l0-352q0-16-16-16l-32 0q-16 0-16 16l0 352q0 16 16 16ZM352 800m16 0l32 0q16 0 16-16l0-800q0-16-16-16l-32 0q-16 0-16 16l0 800q0 16 16 16ZM480 720m16 0l32 0q16 0 16-16l0-640q0-16-16-16l-32 0q-16 0-16 16l0 640q0 16 16 16ZM608 528m16 0l32 0q16 0 16-16l0-256q0-16-16-16l-32 0q-16 0-16 16l0 256q0 16 16 16ZM736 608m16 0l32 0q16 0 16-16l0-416q0-16-16-16l-32 0q-16 0-16 16l0 416q0 16 16 16ZM864 480m16 0l32 0q16 0 16-16l0-160q0-16-16-16l-32 0q-16 0-16 16l0 160q0 16 16 16Z"  horiz-adv-x="1024" />

    
    <glyph glyph-name="cloudy" unicode="&#59134;" d="M752 0H304a240 240 0 0 0-64 471.04V480a288 288 0 0 0 576 0 291.36 291.36 0 0 0-8.96-71.68A208 208 0 0 0 752 0zM528 704a224 224 0 0 1-224-224 217.44 217.44 0 0 1 2.4-30.08l4.16-32-32-4.48A176 176 0 0 1 304 64h448a144 144 0 0 1 10.72 288l-44 3.2 16 40.8A224 224 0 0 1 528 704z"  horiz-adv-x="1024" />

    
    <glyph glyph-name="sunny" unicode="&#59135;" d="M512 640a256 256 0 1 1 256-256 256 256 0 0 1-256 256z m0-448a192 192 0 1 0 192 192 192 192 0 0 0-192-192zM480 832m16 0l32 0q16 0 16-16l0-96q0-16-16-16l-32 0q-16 0-16 16l0 96q0 16 16 16ZM480 64m16 0l32 0q16 0 16-16l0-96q0-16-16-16l-32 0q-16 0-16 16l0 96q0 16 16 16ZM832 416m16 0l96 0q16 0 16-16l0-32q0-16-16-16l-96 0q-16 0-16 16l0 32q0 16 16 16ZM64 416m16 0l96 0q16 0 16-16l0-32q0-16-16-16l-96 0q-16 0-16 16l0 32q0 16 16 16ZM715.54918 632.882406m11.313709 11.313709l67.882251 67.882251q11.313708 11.313708 22.627417 0l22.627417-22.627417q11.313708-11.313708 0-22.627417l-67.882251-67.882251q-11.313708-11.313708-22.627417 0l-22.627417 22.627417q-11.313708 11.313708 0 22.627417ZM172.511122 89.86972m11.313708 11.313709l67.882251 67.882251q11.313708 11.313708 22.627417 0l22.627417-22.627417q11.313708-11.313708 0-22.627417l-67.882251-67.882251q-11.313708-11.313708-22.627417 0l-22.627417 22.627417q-11.313708 11.313708 0 22.627417ZM715.544494 135.108554m11.313709 11.313709l22.627417 22.627417q11.313708 11.313708 22.627417 0l67.882251-67.882251q11.313708-11.313708 0-22.627417l-22.627417-22.627417q-11.313708-11.313708-22.627417 0l-67.882251 67.882251q-11.313708 11.313708 0 22.627417ZM172.531808 678.146613m11.313708 11.313708l22.627417 22.627417q11.313708 11.313708 22.627417 0l67.882251-67.882251q11.313708-11.313708 0-22.627417l-22.627417-22.627417q-11.313708-11.313708-22.627417 0l-67.882251 67.882251q-11.313708 11.313708 0 22.627417Z"  horiz-adv-x="1024" />

    
    <glyph glyph-name="fahrenheit" unicode="&#59137;" d="M832 736V768a16 16 0 0 1-16 16H400a16 16 0 0 1-16-16v-768a16 16 0 0 1 16-16h32a16 16 0 0 1 16 16V352h304a16 16 0 0 1 16 16v32a16 16 0 0 1-16 16H448V713.6a6.4 6.4 0 0 0 6.4 6.4H816a16 16 0 0 1 16 16zM224 720a96 96 0 1 1 96-96 96 96 0 0 1-96 96z m0-128a32 32 0 1 0 32 32 32 32 0 0 0-32-32z"  horiz-adv-x="1024" />

    
    <glyph glyph-name="light-rain" unicode="&#59138;" d="M496 160m16 0l32 0q16 0 16-16l0-128q0-16-16-16l-32 0q-16 0-16 16l0 128q0 16 16 16ZM858.72 424.96A288 288 0 1 1 289.76 512H288a224 224 0 0 1-17.6-448 16 16 0 0 1 17.6 16v32a16 16 0 0 1-14.24 16A160 160 0 0 0 128 288a164.8 164.8 0 0 0 125.44 155.36 133.12 133.12 0 0 0 61.44 2.24l37.92-6.4v38.56A9.28 9.28 0 0 1 352 480a224 224 0 0 0 448 0 219.36 219.36 0 0 0-9.44-64l-8.64-29.12 25.44-9.12A131.2 131.2 0 0 0 896 270.08 128 128 0 0 0 782.08 128a16 16 0 0 1-14.08-16v-32a16 16 0 0 1 17.76-16 192 192 0 0 1 72.96 360.16z"  horiz-adv-x="1024" />

    
    <glyph glyph-name="snowflake" unicode="&#59139;" d="M900.8 357.28l-190.24-51.04L576 384l134.56 77.6 190.24-51.04a16 16 0 0 1 19.68 11.36l8.32 30.88a16 16 0 0 1-11.36 19.68l-128 34.4 113.28 65.28a16 16 0 0 1 5.76 21.92l-16 27.68a16 16 0 0 1-21.76 5.92l-113.28-65.44 34.4 128a16 16 0 0 1-11.36 19.68l-30.88 8.32a16 16 0 0 1-19.52-11.36l-51.04-190.4L544 439.36v155.36l139.36 139.36a16 16 0 0 1 0 22.56L660.8 779.2a16 16 0 0 1-22.72 0L544 685.12V816a16 16 0 0 1-16 16h-32a16 16 0 0 1-16-16v-130.88L385.92 779.2a16 16 0 0 1-22.56 0L340.8 756.64a16 16 0 0 1 0-22.56l139.2-139.36v-155.36l-134.4 77.6-51.04 190.4a16 16 0 0 1-19.52 11.36l-31.04-8.32a16 16 0 0 1-11.2-19.68l34.4-128-113.28 64.96a16 16 0 0 1-21.92-5.92l-16-27.68a16 16 0 0 1 5.92-21.92l113.28-65.28-128-34.4A16 16 0 0 1 96 452.8l8.32-30.88a16 16 0 0 1 19.52-11.36l190.4 51.04L448 384l-134.4-77.76-190.4 51.04a16 16 0 0 1-19.52-11.36L96 315.04a16 16 0 0 1 11.36-19.52l128-34.56-113.44-65.28a16 16 0 0 1-5.92-21.92l16-27.68a16 16 0 0 1 21.92-5.92l113.28 65.44-34.4-128a16 16 0 0 1 11.2-19.68l31.04-8.16a16 16 0 0 1 19.52 11.2l51.04 190.4 134.4 77.12v-155.36l-139.2-139.2a16 16 0 0 1 0-22.72l22.56-22.56a16 16 0 0 1 22.56 0L480 82.72V-48a16 16 0 0 1 16-16h32a16 16 0 0 1 16 16v130.72l94.08-94.08a16 16 0 0 1 22.72 0l22.56 22.56a16 16 0 0 1 0 22.72L544 173.12v155.36l134.56-77.6 51.04-190.4a16 16 0 0 1 19.52-11.2l30.88 8.16a16 16 0 0 1 11.36 19.68l-34.4 128 113.28-65.44a16 16 0 0 1 21.76 5.92l16 27.68a16 16 0 0 1-5.76 21.92l-113.28 65.28 128 34.56a16 16 0 0 1 11.36 19.52l-8.32 30.88a16 16 0 0 1-19.2 11.84z"  horiz-adv-x="1024" />

    
    <glyph glyph-name="heavy-rain" unicode="&#59140;" d="M368 192m16 0l32 0q16 0 16-16l0-128q0-16-16-16l-32 0q-16 0-16 16l0 128q0 16 16 16ZM496 320m16 0l32 0q16 0 16-16l0-128q0-16-16-16l-32 0q-16 0-16 16l0 128q0 16 16 16ZM624 160m16 0l32 0q16 0 16-16l0-128q0-16-16-16l-32 0q-16 0-16 16l0 128q0 16 16 16ZM858.72 424.96A288 288 0 1 1 289.76 512H288a224 224 0 0 1-17.6-448 16 16 0 0 1 17.6 16v32a16 16 0 0 1-14.24 16A160 160 0 0 0 128 288a164.8 164.8 0 0 0 125.44 155.36 133.12 133.12 0 0 0 61.44 2.24l37.92-6.4v38.56A9.28 9.28 0 0 1 352 480a224 224 0 0 0 448 0 219.36 219.36 0 0 0-9.44-64l-8.64-29.12 25.44-9.12A131.2 131.2 0 0 0 896 270.08 128 128 0 0 0 782.08 128a16 16 0 0 1-14.08-16v-32a16 16 0 0 1 17.76-16 192 192 0 0 1 72.96 360.16z"  horiz-adv-x="1024" />

    
    <glyph glyph-name="thermometer" unicode="&#59142;" d="M672 427.68V672a160 160 0 0 1-320 0v-244.32a270.88 270.88 0 0 1-112-221.44A275.36 275.36 0 0 1 499.2-64h12.8a272 272 0 0 1 160 491.68z m20.64-324A208 208 0 1 0 401.12 384l14.88 9.44V480h48a16 16 0 0 1 16 16v32a16 16 0 0 1-16 16h-48v64h48a16 16 0 0 1 16 16v32a16 16 0 0 1-16 16h-48a96 96 0 0 0 108.64 95.2A98.4 98.4 0 0 0 608 668.64v-275.52l14.88-9.44a208 208 0 0 0 84-250.4 152.8 152.8 0 0 0-14.24-29.6zM638.88 208H608c-16 0-16-10.88-17.6-16a80 80 0 0 0-62.4-62.4c-5.12-1.12-16-1.6-16-17.6v-30.88a16 16 0 0 1 18.08-16 144 144 0 0 1 124.8 124.8 16 16 0 0 1-16 18.08z"  horiz-adv-x="1024" />

    
    <glyph glyph-name="moderate-rain" unicode="&#59143;" d="M416 160m16 0l32 0q16 0 16-16l0-128q0-16-16-16l-32 0q-16 0-16 16l0 128q0 16 16 16ZM576 256m16 0l32 0q16 0 16-16l0-128q0-16-16-16l-32 0q-16 0-16 16l0 128q0 16 16 16ZM858.72 424.96A288 288 0 1 1 289.76 512H288a224 224 0 0 1-17.6-448 16 16 0 0 1 17.6 16v32a16 16 0 0 1-14.24 16A160 160 0 0 0 128 288a164.8 164.8 0 0 0 125.44 155.36 133.12 133.12 0 0 0 61.44 2.24l37.92-6.4v38.56A9.28 9.28 0 0 1 352 480a224 224 0 0 0 448 0 219.36 219.36 0 0 0-9.44-64l-8.64-29.12 25.44-9.12A131.2 131.2 0 0 0 896 270.08 128 128 0 0 0 782.08 128a16 16 0 0 1-14.08-16v-32a16 16 0 0 1 17.76-16 192 192 0 0 1 72.96 360.16z"  horiz-adv-x="1024" />

    
    </font>
</defs>
</svg>
